<svg width="24" height="24" viewBox="0 0 24 24" fill="none" xmlns="http://www.w3.org/2000/svg">
<mask id="path-1-outside-1_1_1409" maskUnits="userSpaceOnUse" x="0.49939" y="2.97009" width="23" height="18" fill="black">
<rect fill="white" x="0.49939" y="2.97009" width="23" height="18"/>
<path d="M22.5 8.15547C22.5013 7.91863 22.4178 7.68914 22.2645 7.50857C22.1113 7.328 21.8984 7.20828 21.6645 7.17109L20.5403 6.98247C20.4068 6.96009 20.2699 6.96859 20.1402 7.00734C20.0105 7.04608 19.8915 7.11403 19.7921 7.20597L19.4816 6.12259C19.3021 5.50346 18.9268 4.95913 18.412 4.5711C17.8973 4.18307 17.2706 3.97221 16.626 3.97009H7.64701C7.0023 3.97213 6.3756 4.18295 5.86074 4.57099C5.34589 4.95902 4.97057 5.5034 4.79101 6.12259L4.39951 7.48947C4.31396 7.32031 4.17686 7.18273 4.00801 7.09658C3.83916 7.01044 3.64729 6.9802 3.46013 7.01022L2.33776 7.19884C2.10827 7.23623 1.89901 7.3525 1.74604 7.5276C1.59307 7.70271 1.50597 7.92569 1.49975 8.15812C1.49353 8.39055 1.56858 8.61787 1.71197 8.80091C1.85535 8.98395 2.05809 9.11124 2.28526 9.16084L3.37126 9.39709L3.00601 9.94609C2.60724 10.5447 2.3948 11.2481 2.39551 11.9673C2.39813 11.9816 2.39251 15.5658 2.39626 15.5786V18.8388C2.39705 19.1551 2.52325 19.458 2.74716 19.6813C2.97107 19.9046 3.27442 20.0299 3.59063 20.0298H4.70363C5.01991 20.03 5.32335 19.9047 5.54734 19.6815C5.77134 19.4582 5.89759 19.1551 5.89838 18.8388V17.9516H18.375V18.8388C18.3752 19.1546 18.5007 19.4574 18.7239 19.6807C18.9472 19.904 19.2499 20.0295 19.5656 20.0298H20.6824C20.9987 20.03 21.3021 19.9047 21.5261 19.6815C21.7501 19.4582 21.8763 19.1551 21.8771 18.8388C21.8768 17.1333 21.8779 13.6788 21.8771 11.9673C21.912 10.986 21.4121 10.0908 20.8511 9.32134L21.7174 9.13234C21.9398 9.08336 22.1387 8.95973 22.2811 8.78201C22.4235 8.60429 22.5007 8.38319 22.5 8.15547ZM5.51175 6.32922C5.64615 5.86641 5.9268 5.45956 6.31171 5.16956C6.69661 4.87957 7.16508 4.72201 7.64701 4.72047H16.626C17.1079 4.72209 17.5762 4.87968 17.9611 5.16968C18.3459 5.45967 18.6265 5.86647 18.7609 6.32922L19.2109 7.89934C19.3759 8.03059 5.01563 7.90122 5.04488 7.94547L5.51175 6.32922ZM2.44801 8.42847C2.39194 8.41552 2.34205 8.38364 2.30675 8.3382C2.27146 8.29276 2.2529 8.23654 2.25422 8.17901C2.25555 8.12149 2.27666 8.06618 2.31401 8.0224C2.35136 7.97863 2.40265 7.94908 2.45926 7.93872L3.58576 7.74972C3.61697 7.74507 3.64884 7.751 3.6763 7.76656C3.70375 7.78212 3.72521 7.80642 3.73726 7.83559L4.00088 8.44122C3.98625 8.48434 3.84151 8.68384 3.81713 8.72697L2.44801 8.42847ZM21.1275 15.5628C21.1273 15.9971 20.9548 16.4135 20.648 16.7207C20.3411 17.028 19.9249 17.2009 19.4906 17.2016H4.78238C4.34785 17.2008 3.9314 17.0276 3.62449 16.72C3.31758 16.4123 3.14531 15.9955 3.1455 15.561V15.1638H21.1275V15.5628ZM5.14838 18.8388C5.14778 18.9563 5.10062 19.0687 5.01723 19.1513C4.93385 19.234 4.82106 19.2802 4.70363 19.2798H3.59063C3.47327 19.2801 3.36058 19.2339 3.27727 19.1512C3.19397 19.0685 3.14685 18.9562 3.14626 18.8388V17.2976C3.41495 17.5417 3.73226 17.7261 4.07734 17.8388C4.42242 17.9514 4.78743 17.9897 5.14838 17.9512V18.8388ZM20.6824 19.2798H19.5656C19.4488 19.2796 19.3367 19.2331 19.2541 19.1504C19.1715 19.0678 19.1251 18.9557 19.125 18.8388V17.9516C19.486 17.9901 19.8511 17.9516 20.1962 17.8389C20.5412 17.7261 20.8585 17.5415 21.1271 17.2972V18.8388C21.1265 18.9563 21.0794 19.0687 20.996 19.1513C20.9126 19.234 20.7998 19.2802 20.6824 19.2798ZM21.1275 14.4142H3.1455V11.9673C3.14484 11.3959 3.31371 10.8371 3.63076 10.3616C3.90413 9.93034 4.47826 9.13234 4.71563 8.69547H19.5574C19.5986 8.76822 19.6335 8.84472 19.68 8.91484L20.6423 10.3616C20.9593 10.8371 21.1282 11.3959 21.1275 11.9673V14.4142ZM21.555 8.39997L20.4056 8.65084C20.2947 8.49402 20.1966 8.32848 20.1124 8.15584C20.2058 7.98184 20.2493 7.68334 20.4161 7.72197L21.5434 7.91097C21.5993 7.92202 21.6498 7.95183 21.6865 7.99546C21.7232 8.0391 21.7439 8.09395 21.7452 8.15095C21.7466 8.20796 21.7284 8.2637 21.6937 8.30898C21.6591 8.35425 21.6104 8.38635 21.555 8.39997Z"/>
</mask>
<path d="M22.5 8.15547C22.5013 7.91863 22.4178 7.68914 22.2645 7.50857C22.1113 7.328 21.8984 7.20828 21.6645 7.17109L20.5403 6.98247C20.4068 6.96009 20.2699 6.96859 20.1402 7.00734C20.0105 7.04608 19.8915 7.11403 19.7921 7.20597L19.4816 6.12259C19.3021 5.50346 18.9268 4.95913 18.412 4.5711C17.8973 4.18307 17.2706 3.97221 16.626 3.97009H7.64701C7.0023 3.97213 6.3756 4.18295 5.86074 4.57099C5.34589 4.95902 4.97057 5.5034 4.79101 6.12259L4.39951 7.48947C4.31396 7.32031 4.17686 7.18273 4.00801 7.09658C3.83916 7.01044 3.64729 6.9802 3.46013 7.01022L2.33776 7.19884C2.10827 7.23623 1.89901 7.3525 1.74604 7.5276C1.59307 7.70271 1.50597 7.92569 1.49975 8.15812C1.49353 8.39055 1.56858 8.61787 1.71197 8.80091C1.85535 8.98395 2.05809 9.11124 2.28526 9.16084L3.37126 9.39709L3.00601 9.94609C2.60724 10.5447 2.3948 11.2481 2.39551 11.9673C2.39813 11.9816 2.39251 15.5658 2.39626 15.5786V18.8388C2.39705 19.1551 2.52325 19.458 2.74716 19.6813C2.97107 19.9046 3.27442 20.0299 3.59063 20.0298H4.70363C5.01991 20.03 5.32335 19.9047 5.54734 19.6815C5.77134 19.4582 5.89759 19.1551 5.89838 18.8388V17.9516H18.375V18.8388C18.3752 19.1546 18.5007 19.4574 18.7239 19.6807C18.9472 19.904 19.2499 20.0295 19.5656 20.0298H20.6824C20.9987 20.03 21.3021 19.9047 21.5261 19.6815C21.7501 19.4582 21.8763 19.1551 21.8771 18.8388C21.8768 17.1333 21.8779 13.6788 21.8771 11.9673C21.912 10.986 21.4121 10.0908 20.8511 9.32134L21.7174 9.13234C21.9398 9.08336 22.1387 8.95973 22.2811 8.78201C22.4235 8.60429 22.5007 8.38319 22.5 8.15547ZM5.51175 6.32922C5.64615 5.86641 5.9268 5.45956 6.31171 5.16956C6.69661 4.87957 7.16508 4.72201 7.64701 4.72047H16.626C17.1079 4.72209 17.5762 4.87968 17.9611 5.16968C18.3459 5.45967 18.6265 5.86647 18.7609 6.32922L19.2109 7.89934C19.3759 8.03059 5.01563 7.90122 5.04488 7.94547L5.51175 6.32922ZM2.44801 8.42847C2.39194 8.41552 2.34205 8.38364 2.30675 8.3382C2.27146 8.29276 2.2529 8.23654 2.25422 8.17901C2.25555 8.12149 2.27666 8.06618 2.31401 8.0224C2.35136 7.97863 2.40265 7.94908 2.45926 7.93872L3.58576 7.74972C3.61697 7.74507 3.64884 7.751 3.6763 7.76656C3.70375 7.78212 3.72521 7.80642 3.73726 7.83559L4.00088 8.44122C3.98625 8.48434 3.84151 8.68384 3.81713 8.72697L2.44801 8.42847ZM21.1275 15.5628C21.1273 15.9971 20.9548 16.4135 20.648 16.7207C20.3411 17.028 19.9249 17.2009 19.4906 17.2016H4.78238C4.34785 17.2008 3.9314 17.0276 3.62449 16.72C3.31758 16.4123 3.14531 15.9955 3.1455 15.561V15.1638H21.1275V15.5628ZM5.14838 18.8388C5.14778 18.9563 5.10062 19.0687 5.01723 19.1513C4.93385 19.234 4.82106 19.2802 4.70363 19.2798H3.59063C3.47327 19.2801 3.36058 19.2339 3.27727 19.1512C3.19397 19.0685 3.14685 18.9562 3.14626 18.8388V17.2976C3.41495 17.5417 3.73226 17.7261 4.07734 17.8388C4.42242 17.9514 4.78743 17.9897 5.14838 17.9512V18.8388ZM20.6824 19.2798H19.5656C19.4488 19.2796 19.3367 19.2331 19.2541 19.1504C19.1715 19.0678 19.1251 18.9557 19.125 18.8388V17.9516C19.486 17.9901 19.8511 17.9516 20.1962 17.8389C20.5412 17.7261 20.8585 17.5415 21.1271 17.2972V18.8388C21.1265 18.9563 21.0794 19.0687 20.996 19.1513C20.9126 19.234 20.7998 19.2802 20.6824 19.2798ZM21.1275 14.4142H3.1455V11.9673C3.14484 11.3959 3.31371 10.8371 3.63076 10.3616C3.90413 9.93034 4.47826 9.13234 4.71563 8.69547H19.5574C19.5986 8.76822 19.6335 8.84472 19.68 8.91484L20.6423 10.3616C20.9593 10.8371 21.1282 11.3959 21.1275 11.9673V14.4142ZM21.555 8.39997L20.4056 8.65084C20.2947 8.49402 20.1966 8.32848 20.1124 8.15584C20.2058 7.98184 20.2493 7.68334 20.4161 7.72197L21.5434 7.91097C21.5993 7.92202 21.6498 7.95183 21.6865 7.99546C21.7232 8.0391 21.7439 8.09395 21.7452 8.15095C21.7466 8.20796 21.7284 8.2637 21.6937 8.30898C21.6591 8.35425 21.6104 8.38635 21.555 8.39997Z" fill="white"/>
<path d="M22.5 8.15547C22.5013 7.91863 22.4178 7.68914 22.2645 7.50857C22.1113 7.328 21.8984 7.20828 21.6645 7.17109L20.5403 6.98247C20.4068 6.96009 20.2699 6.96859 20.1402 7.00734C20.0105 7.04608 19.8915 7.11403 19.7921 7.20597L19.4816 6.12259C19.3021 5.50346 18.9268 4.95913 18.412 4.5711C17.8973 4.18307 17.2706 3.97221 16.626 3.97009H7.64701C7.0023 3.97213 6.3756 4.18295 5.86074 4.57099C5.34589 4.95902 4.97057 5.5034 4.79101 6.12259L4.39951 7.48947C4.31396 7.32031 4.17686 7.18273 4.00801 7.09658C3.83916 7.01044 3.64729 6.9802 3.46013 7.01022L2.33776 7.19884C2.10827 7.23623 1.89901 7.3525 1.74604 7.5276C1.59307 7.70271 1.50597 7.92569 1.49975 8.15812C1.49353 8.39055 1.56858 8.61787 1.71197 8.80091C1.85535 8.98395 2.05809 9.11124 2.28526 9.16084L3.37126 9.39709L3.00601 9.94609C2.60724 10.5447 2.3948 11.2481 2.39551 11.9673C2.39813 11.9816 2.39251 15.5658 2.39626 15.5786V18.8388C2.39705 19.1551 2.52325 19.458 2.74716 19.6813C2.97107 19.9046 3.27442 20.0299 3.59063 20.0298H4.70363C5.01991 20.03 5.32335 19.9047 5.54734 19.6815C5.77134 19.4582 5.89759 19.1551 5.89838 18.8388V17.9516H18.375V18.8388C18.3752 19.1546 18.5007 19.4574 18.7239 19.6807C18.9472 19.904 19.2499 20.0295 19.5656 20.0298H20.6824C20.9987 20.03 21.3021 19.9047 21.5261 19.6815C21.7501 19.4582 21.8763 19.1551 21.8771 18.8388C21.8768 17.1333 21.8779 13.6788 21.8771 11.9673C21.912 10.986 21.4121 10.0908 20.8511 9.32134L21.7174 9.13234C21.9398 9.08336 22.1387 8.95973 22.2811 8.78201C22.4235 8.60429 22.5007 8.38319 22.5 8.15547ZM5.51175 6.32922C5.64615 5.86641 5.9268 5.45956 6.31171 5.16956C6.69661 4.87957 7.16508 4.72201 7.64701 4.72047H16.626C17.1079 4.72209 17.5762 4.87968 17.9611 5.16968C18.3459 5.45967 18.6265 5.86647 18.7609 6.32922L19.2109 7.89934C19.3759 8.03059 5.01563 7.90122 5.04488 7.94547L5.51175 6.32922ZM2.44801 8.42847C2.39194 8.41552 2.34205 8.38364 2.30675 8.3382C2.27146 8.29276 2.2529 8.23654 2.25422 8.17901C2.25555 8.12149 2.27666 8.06618 2.31401 8.0224C2.35136 7.97863 2.40265 7.94908 2.45926 7.93872L3.58576 7.74972C3.61697 7.74507 3.64884 7.751 3.6763 7.76656C3.70375 7.78212 3.72521 7.80642 3.73726 7.83559L4.00088 8.44122C3.98625 8.48434 3.84151 8.68384 3.81713 8.72697L2.44801 8.42847ZM21.1275 15.5628C21.1273 15.9971 20.9548 16.4135 20.648 16.7207C20.3411 17.028 19.9249 17.2009 19.4906 17.2016H4.78238C4.34785 17.2008 3.9314 17.0276 3.62449 16.72C3.31758 16.4123 3.14531 15.9955 3.1455 15.561V15.1638H21.1275V15.5628ZM5.14838 18.8388C5.14778 18.9563 5.10062 19.0687 5.01723 19.1513C4.93385 19.234 4.82106 19.2802 4.70363 19.2798H3.59063C3.47327 19.2801 3.36058 19.2339 3.27727 19.1512C3.19397 19.0685 3.14685 18.9562 3.14626 18.8388V17.2976C3.41495 17.5417 3.73226 17.7261 4.07734 17.8388C4.42242 17.9514 4.78743 17.9897 5.14838 17.9512V18.8388ZM20.6824 19.2798H19.5656C19.4488 19.2796 19.3367 19.2331 19.2541 19.1504C19.1715 19.0678 19.1251 18.9557 19.125 18.8388V17.9516C19.486 17.9901 19.8511 17.9516 20.1962 17.8389C20.5412 17.7261 20.8585 17.5415 21.1271 17.2972V18.8388C21.1265 18.9563 21.0794 19.0687 20.996 19.1513C20.9126 19.234 20.7998 19.2802 20.6824 19.2798ZM21.1275 14.4142H3.1455V11.9673C3.14484 11.3959 3.31371 10.8371 3.63076 10.3616C3.90413 9.93034 4.47826 9.13234 4.71563 8.69547H19.5574C19.5986 8.76822 19.6335 8.84472 19.68 8.91484L20.6423 10.3616C20.9593 10.8371 21.1282 11.3959 21.1275 11.9673V14.4142ZM21.555 8.39997L20.4056 8.65084C20.2947 8.49402 20.1966 8.32848 20.1124 8.15584C20.2058 7.98184 20.2493 7.68334 20.4161 7.72197L21.5434 7.91097C21.5993 7.92202 21.6498 7.95183 21.6865 7.99546C21.7232 8.0391 21.7439 8.09395 21.7452 8.15095C21.7466 8.20796 21.7284 8.2637 21.6937 8.30898C21.6591 8.35425 21.6104 8.38635 21.555 8.39997Z" stroke="white" stroke-width="0.6" mask="url(#path-1-outside-1_1_1409)"/>
<mask id="path-2-outside-2_1_1409" maskUnits="userSpaceOnUse" x="4.1153" y="9.77808" width="16" height="4" fill="black">
<rect fill="white" x="4.1153" y="9.77808" width="16" height="4"/>
<path d="M7.82167 11.3184C7.74569 11.1957 7.64092 11.0933 7.51645 11.0202C7.39197 10.9472 7.25155 10.9056 7.10736 10.899L5.8638 10.8422C5.69281 10.8344 5.52542 10.893 5.39664 11.0057C5.26787 11.1185 5.18768 11.2767 5.17286 11.4472L5.11792 12.0759C5.10268 12.2466 5.15427 12.4166 5.26182 12.55C5.36938 12.6834 5.52451 12.7699 5.69454 12.7912L8.33576 13.1281C8.395 13.1358 8.4552 13.1265 8.50937 13.1013C8.56354 13.0762 8.60946 13.0361 8.64179 12.9859C8.67413 12.9357 8.69156 12.8773 8.69205 12.8176C8.69255 12.7579 8.6761 12.6992 8.6446 12.6485L7.82167 11.3184ZM5.77475 12.1647C5.76659 12.1637 5.75913 12.1596 5.75394 12.1533C5.74875 12.1469 5.74625 12.1388 5.74696 12.1306L5.80191 11.5022C5.80255 11.494 5.80634 11.4864 5.81246 11.481C5.81859 11.4756 5.82658 11.4728 5.83475 11.4731L7.07863 11.53C7.12015 11.5318 7.16059 11.5439 7.19642 11.5649C7.23224 11.586 7.26238 11.6155 7.2842 11.6509L7.75883 12.4176L5.77475 12.1647ZM18.4096 10.7787L17.1661 10.8355C17.0219 10.842 16.8815 10.8836 16.757 10.9566C16.6325 11.0296 16.5278 11.1319 16.4517 11.2546L15.6288 12.5847C15.6 12.6327 15.5843 12.6874 15.5834 12.7433C15.5825 12.7993 15.5963 12.8545 15.6235 12.9034C15.6508 12.9523 15.6904 12.9932 15.7385 13.0219C15.7865 13.0506 15.8413 13.0661 15.8972 13.0669C15.9105 13.0669 15.9238 13.066 15.937 13.0644L18.5789 12.7277C18.749 12.7063 18.9042 12.6197 19.0117 12.4862C19.1193 12.3527 19.1708 12.1826 19.1555 12.0118L19.1006 11.3834C19.0853 11.2131 19.005 11.0552 18.8763 10.9426C18.7476 10.83 18.5805 10.7713 18.4096 10.7787ZM18.499 12.1012L16.5146 12.3538L16.9889 11.5871C17.0107 11.5517 17.0409 11.5222 17.0768 11.5012C17.1127 11.4801 17.1532 11.4682 17.1948 11.4665L18.4383 11.4096C18.4463 11.4099 18.454 11.413 18.46 11.4182C18.466 11.4234 18.4701 11.4305 18.4715 11.4384L18.5265 12.0668C18.5273 12.075 18.5248 12.0832 18.5197 12.0896C18.5146 12.096 18.5071 12.1002 18.499 12.1012ZM14.8409 11.091C13.0924 11.4823 11.2793 11.4839 9.53006 11.0958C9.47475 11.0803 9.41625 11.0802 9.36088 11.0955C9.30551 11.1107 9.25535 11.1408 9.21582 11.1825C9.17629 11.2242 9.14887 11.2759 9.13653 11.332C9.12418 11.3881 9.12737 11.4465 9.14575 11.5009L9.69206 13.1155C9.71047 13.1698 9.74328 13.2181 9.787 13.2552C9.83072 13.2923 9.88369 13.3168 9.94027 13.3261C10.8753 13.551 14.1017 13.3931 14.4086 13.3284C14.4695 13.3223 14.5274 13.2988 14.5752 13.2605C14.623 13.2222 14.6586 13.1708 14.6777 13.1127L15.2076 11.4984C15.2242 11.4456 15.2268 11.3894 15.2151 11.3353C15.2034 11.2812 15.1777 11.231 15.1407 11.1899C15.1036 11.1488 15.0565 11.118 15.0039 11.1006C14.9514 11.0833 14.8952 11.08 14.8409 11.091ZM14.1427 12.7179C12.8408 12.8393 11.5306 12.8433 10.2279 12.7299L9.9229 11.8274C11.4181 12.0827 12.9461 12.0777 14.4396 11.8126L14.1427 12.7179Z"/>
</mask>
<path d="M7.82167 11.3184C7.74569 11.1957 7.64092 11.0933 7.51645 11.0202C7.39197 10.9472 7.25155 10.9056 7.10736 10.899L5.8638 10.8422C5.69281 10.8344 5.52542 10.893 5.39664 11.0057C5.26787 11.1185 5.18768 11.2767 5.17286 11.4472L5.11792 12.0759C5.10268 12.2466 5.15427 12.4166 5.26182 12.55C5.36938 12.6834 5.52451 12.7699 5.69454 12.7912L8.33576 13.1281C8.395 13.1358 8.4552 13.1265 8.50937 13.1013C8.56354 13.0762 8.60946 13.0361 8.64179 12.9859C8.67413 12.9357 8.69156 12.8773 8.69205 12.8176C8.69255 12.7579 8.6761 12.6992 8.6446 12.6485L7.82167 11.3184ZM5.77475 12.1647C5.76659 12.1637 5.75913 12.1596 5.75394 12.1533C5.74875 12.1469 5.74625 12.1388 5.74696 12.1306L5.80191 11.5022C5.80255 11.494 5.80634 11.4864 5.81246 11.481C5.81859 11.4756 5.82658 11.4728 5.83475 11.4731L7.07863 11.53C7.12015 11.5318 7.16059 11.5439 7.19642 11.5649C7.23224 11.586 7.26238 11.6155 7.2842 11.6509L7.75883 12.4176L5.77475 12.1647ZM18.4096 10.7787L17.1661 10.8355C17.0219 10.842 16.8815 10.8836 16.757 10.9566C16.6325 11.0296 16.5278 11.1319 16.4517 11.2546L15.6288 12.5847C15.6 12.6327 15.5843 12.6874 15.5834 12.7433C15.5825 12.7993 15.5963 12.8545 15.6235 12.9034C15.6508 12.9523 15.6904 12.9932 15.7385 13.0219C15.7865 13.0506 15.8413 13.0661 15.8972 13.0669C15.9105 13.0669 15.9238 13.066 15.937 13.0644L18.5789 12.7277C18.749 12.7063 18.9042 12.6197 19.0117 12.4862C19.1193 12.3527 19.1708 12.1826 19.1555 12.0118L19.1006 11.3834C19.0853 11.2131 19.005 11.0552 18.8763 10.9426C18.7476 10.83 18.5805 10.7713 18.4096 10.7787ZM18.499 12.1012L16.5146 12.3538L16.9889 11.5871C17.0107 11.5517 17.0409 11.5222 17.0768 11.5012C17.1127 11.4801 17.1532 11.4682 17.1948 11.4665L18.4383 11.4096C18.4463 11.4099 18.454 11.413 18.46 11.4182C18.466 11.4234 18.4701 11.4305 18.4715 11.4384L18.5265 12.0668C18.5273 12.075 18.5248 12.0832 18.5197 12.0896C18.5146 12.096 18.5071 12.1002 18.499 12.1012ZM14.8409 11.091C13.0924 11.4823 11.2793 11.4839 9.53006 11.0958C9.47475 11.0803 9.41625 11.0802 9.36088 11.0955C9.30551 11.1107 9.25535 11.1408 9.21582 11.1825C9.17629 11.2242 9.14887 11.2759 9.13653 11.332C9.12418 11.3881 9.12737 11.4465 9.14575 11.5009L9.69206 13.1155C9.71047 13.1698 9.74328 13.2181 9.787 13.2552C9.83072 13.2923 9.88369 13.3168 9.94027 13.3261C10.8753 13.551 14.1017 13.3931 14.4086 13.3284C14.4695 13.3223 14.5274 13.2988 14.5752 13.2605C14.623 13.2222 14.6586 13.1708 14.6777 13.1127L15.2076 11.4984C15.2242 11.4456 15.2268 11.3894 15.2151 11.3353C15.2034 11.2812 15.1777 11.231 15.1407 11.1899C15.1036 11.1488 15.0565 11.118 15.0039 11.1006C14.9514 11.0833 14.8952 11.08 14.8409 11.091ZM14.1427 12.7179C12.8408 12.8393 11.5306 12.8433 10.2279 12.7299L9.9229 11.8274C11.4181 12.0827 12.9461 12.0777 14.4396 11.8126L14.1427 12.7179Z" fill="white"/>
<path d="M7.82167 11.3184L7.99175 11.2132L7.99172 11.2131L7.82167 11.3184ZM7.10736 10.899L7.09823 11.0988L7.09831 11.0988L7.10736 10.899ZM5.8638 10.8422L5.87293 10.6424L5.87293 10.6424L5.8638 10.8422ZM5.17286 11.4472L5.3721 11.4646L5.37211 11.4645L5.17286 11.4472ZM5.11792 12.0759L5.31713 12.0937L5.31716 12.0934L5.11792 12.0759ZM5.69454 12.7912L5.71985 12.5928L5.71943 12.5928L5.69454 12.7912ZM8.33576 13.1281L8.36142 12.9298L8.36107 12.9297L8.33576 13.1281ZM8.6446 12.6485L8.47452 12.7537L8.47466 12.7539L8.6446 12.6485ZM5.77475 12.1647L5.80004 11.9663L5.798 11.966L5.77475 12.1647ZM5.74696 12.1306L5.54772 12.1132L5.54772 12.1132L5.74696 12.1306ZM5.80191 11.5022L6.00115 11.5196L6.00128 11.518L5.80191 11.5022ZM5.83475 11.4731L5.84388 11.2733L5.84338 11.2733L5.83475 11.4731ZM7.07863 11.53L7.0695 11.7297L7.06954 11.7297L7.07863 11.53ZM7.2842 11.6509L7.11397 11.7559L7.11415 11.7562L7.2842 11.6509ZM7.75883 12.4176L7.73353 12.616L8.1497 12.6691L7.92888 12.3124L7.75883 12.4176ZM18.4096 10.7787L18.4009 10.5789L18.4005 10.5789L18.4096 10.7787ZM17.1661 10.8355L17.1751 11.0353L17.1752 11.0353L17.1661 10.8355ZM16.4517 11.2546L16.2817 11.1492L16.2817 11.1494L16.4517 11.2546ZM15.6288 12.5847L15.4587 12.4794L15.4574 12.4817L15.6288 12.5847ZM15.8972 13.0669L15.8944 13.2669L15.8972 13.2669L15.8972 13.0669ZM15.937 13.0644L15.9117 12.866L15.9116 12.866L15.937 13.0644ZM18.5789 12.7277L18.5539 12.5293L18.5536 12.5293L18.5789 12.7277ZM19.1555 12.0118L18.9563 12.0293L18.9563 12.0297L19.1555 12.0118ZM19.1006 11.3834L19.2998 11.366L19.2998 11.3656L19.1006 11.3834ZM18.499 12.1012L18.4739 11.9028L18.4737 11.9028L18.499 12.1012ZM16.5146 12.3538L16.3445 12.2486L16.1239 12.6052L16.5398 12.5522L16.5146 12.3538ZM16.9889 11.5871L17.159 11.6923L17.1591 11.6921L16.9889 11.5871ZM17.1948 11.4665L17.2032 11.6663L17.2039 11.6663L17.1948 11.4665ZM18.4383 11.4096L18.4459 11.2098L18.4376 11.2095L18.4292 11.2099L18.4383 11.4096ZM18.4715 11.4384L18.6707 11.421L18.6699 11.4117L18.6683 11.4025L18.4715 11.4384ZM18.5265 12.0668L18.3272 12.0842L18.3274 12.0864L18.5265 12.0668ZM14.8409 11.091L14.8011 10.895L14.7973 10.8958L14.8409 11.091ZM9.53006 11.0958L9.47606 11.2886L9.48673 11.291L9.53006 11.0958ZM9.14575 11.5009L8.95627 11.5649L8.9563 11.565L9.14575 11.5009ZM9.69206 13.1155L9.50261 13.1796L9.50265 13.1797L9.69206 13.1155ZM9.94027 13.3261L9.98703 13.1317L9.97996 13.13L9.9728 13.1288L9.94027 13.3261ZM14.4086 13.3284L14.389 13.1293L14.3781 13.1304L14.3673 13.1327L14.4086 13.3284ZM14.6777 13.1127L14.8677 13.1751L14.8677 13.175L14.6777 13.1127ZM15.2076 11.4984L15.3976 11.5608L15.3983 11.5586L15.2076 11.4984ZM14.1427 12.7179L14.1613 12.9171L14.2919 12.9049L14.3328 12.7802L14.1427 12.7179ZM10.2279 12.7299L10.0385 12.794L10.0803 12.9178L10.2106 12.9292L10.2279 12.7299ZM9.9229 11.8274L9.95656 11.6303L9.62608 11.5739L9.73343 11.8915L9.9229 11.8274ZM14.4396 11.8126L14.6296 11.8749L14.7338 11.5572L14.4046 11.6157L14.4396 11.8126ZM7.99172 11.2131C7.89862 11.0627 7.77023 10.9373 7.61771 10.8478L7.41519 11.1927C7.51161 11.2493 7.59276 11.3286 7.65162 11.4237L7.99172 11.2131ZM7.61771 10.8478C7.46518 10.7582 7.29311 10.7072 7.11642 10.6992L7.09831 11.0988C7.21 11.1039 7.31877 11.1361 7.41519 11.1927L7.61771 10.8478ZM7.11649 10.6992L5.87293 10.6424L5.85467 11.042L7.09823 11.0988L7.11649 10.6992ZM5.87293 10.6424C5.65037 10.6322 5.4325 10.7085 5.26488 10.8553L5.5284 11.1562C5.61834 11.0774 5.73525 11.0365 5.85467 11.042L5.87293 10.6424ZM5.26488 10.8553C5.09727 11.002 4.9929 11.2079 4.97362 11.4299L5.37211 11.4645C5.38246 11.3454 5.43846 11.235 5.5284 11.1562L5.26488 10.8553ZM4.97362 11.4298L4.91868 12.0585L5.31716 12.0934L5.3721 11.4646L4.97362 11.4298ZM4.91871 12.0582C4.89887 12.2805 4.96605 12.5018 5.10612 12.6755L5.41753 12.4245C5.34249 12.3314 5.30649 12.2128 5.31713 12.0937L4.91871 12.0582ZM5.10612 12.6755C5.24619 12.8493 5.44821 12.9619 5.66965 12.9896L5.71943 12.5928C5.6008 12.5779 5.49257 12.5175 5.41753 12.4245L5.10612 12.6755ZM5.66923 12.9896L8.31046 13.3265L8.36107 12.9297L5.71985 12.5928L5.66923 12.9896ZM8.3101 13.3265C8.40686 13.339 8.50518 13.3238 8.59366 13.2827L8.42508 12.92C8.40522 12.9292 8.38315 12.9326 8.36142 12.9298L8.3101 13.3265ZM8.59366 13.2827C8.68214 13.2416 8.75714 13.1762 8.80995 13.0942L8.47363 12.8776C8.46177 12.8961 8.44494 12.9107 8.42508 12.92L8.59366 13.2827ZM8.80995 13.0942C8.86277 13.0122 8.89123 12.9168 8.89205 12.8193L8.49206 12.8159C8.49188 12.8378 8.48549 12.8592 8.47363 12.8776L8.80995 13.0942ZM8.89205 12.8193C8.89286 12.7217 8.86598 12.6259 8.81454 12.543L8.47466 12.7539C8.48621 12.7725 8.49224 12.794 8.49206 12.8159L8.89205 12.8193ZM8.81468 12.5432L7.99175 11.2132L7.65159 11.4236L8.47452 12.7537L8.81468 12.5432ZM5.798 11.966C5.84151 11.9711 5.88132 11.993 5.90899 12.0269L5.59889 12.2796C5.63694 12.3263 5.69168 12.3563 5.7515 12.3633L5.798 11.966ZM5.90899 12.0269C5.93665 12.0609 5.95001 12.1043 5.94621 12.1479L5.54772 12.1132C5.54249 12.1732 5.56085 12.2329 5.59889 12.2796L5.90899 12.0269ZM5.9462 12.148L6.00115 11.5196L5.60267 11.4847L5.54772 12.1132L5.9462 12.148ZM6.00128 11.518C5.99783 11.5615 5.97765 11.6019 5.94498 11.6308L5.67995 11.3312C5.63503 11.371 5.60728 11.4266 5.60253 11.4864L6.00128 11.518ZM5.94498 11.6308C5.91232 11.6597 5.86971 11.6748 5.82612 11.6729L5.84338 11.2733C5.78345 11.2707 5.72486 11.2915 5.67995 11.3312L5.94498 11.6308ZM5.82562 11.6729L7.0695 11.7297L7.08776 11.3302L5.84388 11.2733L5.82562 11.6729ZM7.06954 11.7297C7.07851 11.7302 7.08725 11.7328 7.095 11.7373L7.29783 11.3925C7.23392 11.3549 7.16179 11.3335 7.08771 11.3302L7.06954 11.7297ZM7.095 11.7373C7.10274 11.7419 7.10926 11.7482 7.11398 11.7559L7.45443 11.5459C7.4155 11.4828 7.36174 11.4302 7.29783 11.3925L7.095 11.7373ZM7.11415 11.7562L7.58877 12.5229L7.92888 12.3124L7.45426 11.5456L7.11415 11.7562ZM7.78412 12.2192L5.80004 11.9663L5.74946 12.3631L7.73353 12.616L7.78412 12.2192ZM18.4005 10.5789L17.1569 10.6358L17.1752 11.0353L18.4187 10.9785L18.4005 10.5789ZM17.157 10.6357C16.9804 10.6437 16.8083 10.6946 16.6558 10.7841L16.8582 11.1291C16.9546 11.0726 17.0634 11.0404 17.1751 11.0353L17.157 10.6357ZM16.6558 10.7841C16.5033 10.8736 16.3749 10.9989 16.2817 11.1492L16.6218 11.3599C16.6806 11.2649 16.7618 11.1857 16.8582 11.1291L16.6558 10.7841ZM16.2817 11.1494L15.4587 12.4794L15.7989 12.6899L16.6218 11.3598L16.2817 11.1494ZM15.4574 12.4817C15.4104 12.5598 15.3849 12.6489 15.3834 12.74L15.7834 12.7466C15.7837 12.7258 15.7895 12.7055 15.8003 12.6877L15.4574 12.4817ZM15.3834 12.74C15.3819 12.8312 15.4045 12.9211 15.4488 13.0007L15.7983 12.8061C15.7882 12.788 15.783 12.7674 15.7834 12.7466L15.3834 12.74ZM15.4488 13.0007C15.4931 13.0803 15.5577 13.1469 15.6359 13.1936L15.841 12.8502C15.8231 12.8395 15.8084 12.8243 15.7983 12.8061L15.4488 13.0007ZM15.6359 13.1936C15.7141 13.2403 15.8033 13.2656 15.8944 13.2669L15.9 12.8669C15.8792 12.8666 15.8589 12.8608 15.841 12.8502L15.6359 13.1936ZM15.8972 13.2669C15.919 13.2669 15.9408 13.2655 15.9624 13.2627L15.9116 12.866C15.9069 12.8666 15.9021 12.8669 15.8973 12.8669L15.8972 13.2669ZM15.9623 13.2627L18.6042 12.9261L18.5536 12.5293L15.9117 12.866L15.9623 13.2627ZM18.6038 12.9262C18.8254 12.8983 19.0274 12.7856 19.1675 12.6117L18.856 12.3608C18.7809 12.4539 18.6726 12.5144 18.5539 12.5293L18.6038 12.9262ZM19.1675 12.6117C19.3075 12.4378 19.3747 12.2163 19.3547 11.994L18.9563 12.0297C18.967 12.1489 18.931 12.2676 18.856 12.3608L19.1675 12.6117ZM19.3547 11.9944L19.2998 11.366L18.9013 11.4009L18.9563 12.0293L19.3547 11.9944ZM19.2998 11.3656C19.2799 11.144 19.1754 10.9386 19.008 10.7921L18.7446 11.0931C18.8345 11.1718 18.8907 11.2822 18.9014 11.4013L19.2998 11.3656ZM19.008 10.7921C18.8406 10.6456 18.6232 10.5692 18.4009 10.5789L18.4183 10.9785C18.5377 10.9733 18.6546 11.0144 18.7446 11.0931L19.008 10.7921ZM18.4737 11.9028L16.4893 12.1554L16.5398 12.5522L18.5242 12.2996L18.4737 11.9028ZM16.6847 12.4591L17.159 11.6923L16.8188 11.4819L16.3445 12.2486L16.6847 12.4591ZM17.1591 11.6921C17.1638 11.6846 17.1702 11.6782 17.1779 11.6737L16.9757 11.3286C16.9116 11.3662 16.8577 11.4189 16.8187 11.4821L17.1591 11.6921ZM17.1779 11.6737C17.1856 11.6692 17.1943 11.6667 17.2032 11.6663L17.1864 11.2667C17.1122 11.2698 17.0398 11.2911 16.9757 11.3286L17.1779 11.6737ZM17.2039 11.6663L18.4475 11.6094L18.4292 11.2099L17.1857 11.2667L17.2039 11.6663ZM18.4308 11.6095C18.3933 11.6081 18.3574 11.5939 18.329 11.5693L18.591 11.267C18.5505 11.232 18.4994 11.2118 18.4459 11.2098L18.4308 11.6095ZM18.329 11.5693C18.3006 11.5447 18.2815 11.5112 18.2748 11.4743L18.6683 11.4025C18.6587 11.3499 18.6314 11.3021 18.591 11.267L18.329 11.5693ZM18.2723 11.4558L18.3272 12.0842L18.7257 12.0494L18.6707 11.421L18.2723 11.4558ZM18.3274 12.0864C18.3231 12.0427 18.336 11.9991 18.3634 11.9648L18.676 12.2143C18.7137 12.1672 18.7314 12.1072 18.7255 12.0472L18.3274 12.0864ZM18.3634 11.9648C18.3908 11.9305 18.4304 11.9083 18.4739 11.9028L18.524 12.2996C18.5839 12.2921 18.6384 12.2615 18.676 12.2143L18.3634 11.9648ZM14.7973 10.8958C13.0774 11.2807 11.2939 11.2823 9.57339 10.9005L9.48673 11.291C11.2646 11.6855 13.1075 11.6839 14.8846 11.2862L14.7973 10.8958ZM9.58398 10.9032C9.49363 10.8779 9.39809 10.8777 9.30765 10.9027L9.41411 11.2882C9.43441 11.2826 9.45586 11.2827 9.47614 11.2883L9.58398 10.9032ZM9.30765 10.9027C9.2172 10.9276 9.13529 10.9768 9.07072 11.0449L9.36093 11.3202C9.37542 11.3049 9.39381 11.2938 9.41411 11.2882L9.30765 10.9027ZM9.07072 11.0449C9.00615 11.113 8.96137 11.1974 8.9412 11.289L9.33185 11.375C9.33638 11.3544 9.34643 11.3354 9.36093 11.3202L9.07072 11.0449ZM8.9412 11.289C8.92103 11.3806 8.92624 11.476 8.95627 11.5649L9.33523 11.4369C9.32849 11.4169 9.32732 11.3955 9.33185 11.375L8.9412 11.289ZM8.9563 11.565L9.50261 13.1796L9.88151 13.0514L9.3352 11.4368L8.9563 11.565ZM9.50265 13.1797C9.53269 13.2683 9.58624 13.3471 9.65759 13.4077L9.9164 13.1027C9.90032 13.089 9.88825 13.0713 9.88147 13.0513L9.50265 13.1797ZM9.65759 13.4077C9.72894 13.4682 9.8154 13.5083 9.90774 13.5235L9.9728 13.1288C9.95198 13.1254 9.93249 13.1163 9.9164 13.1027L9.65759 13.4077ZM9.89351 13.5206C10.1487 13.582 10.5435 13.6145 10.9826 13.6303C11.4264 13.6463 11.9309 13.6456 12.414 13.6358C12.8974 13.626 13.3611 13.6071 13.7237 13.5866C14.0772 13.5666 14.3547 13.5441 14.4499 13.524L14.3673 13.1327C14.3091 13.1449 14.0682 13.1665 13.7011 13.1873C13.3433 13.2075 12.8844 13.2262 12.4059 13.2359C11.9272 13.2456 11.4307 13.2462 10.997 13.2306C10.5585 13.2148 10.1994 13.1827 9.98703 13.1317L9.89351 13.5206ZM14.4282 13.5274C14.5277 13.5176 14.6223 13.4791 14.7003 13.4165L14.4501 13.1044C14.4326 13.1185 14.4114 13.1271 14.389 13.1293L14.4282 13.5274ZM14.7003 13.4165C14.7783 13.354 14.8365 13.2701 14.8677 13.1751L14.4877 13.0502C14.4807 13.0716 14.4676 13.0904 14.4501 13.1044L14.7003 13.4165ZM14.8677 13.175L15.3976 11.5608L15.0175 11.436L14.4876 13.0503L14.8677 13.175ZM15.3983 11.5586C15.4254 11.4726 15.4297 11.381 15.4106 11.2929L15.0196 11.3776C15.024 11.3977 15.023 11.4186 15.0168 11.4382L15.3983 11.5586ZM15.4106 11.2929C15.3914 11.2048 15.3497 11.1231 15.2893 11.0561L14.992 11.3237C15.0058 11.339 15.0153 11.3576 15.0196 11.3776L15.4106 11.2929ZM15.2893 11.0561C15.229 10.9891 15.1522 10.939 15.0666 10.9107L14.9413 11.2906C14.9608 11.297 14.9783 11.3084 14.992 11.3237L15.2893 11.0561ZM15.0666 10.9107C14.981 10.8825 14.8894 10.8771 14.8011 10.895L14.8808 11.287C14.9009 11.2829 14.9218 11.2841 14.9413 11.2906L15.0666 10.9107ZM14.1242 12.5188C12.8342 12.639 11.536 12.643 10.2453 12.5307L10.2106 12.9292C11.5252 13.0436 12.8474 13.0395 14.1613 12.9171L14.1242 12.5188ZM10.4174 12.6659L10.1124 11.7634L9.73343 11.8915L10.0385 12.794L10.4174 12.6659ZM9.88924 12.0246C11.4071 12.2837 12.9584 12.2786 14.4745 12.0095L14.4046 11.6157C12.9338 11.8767 11.429 11.8817 9.95656 11.6303L9.88924 12.0246ZM14.2495 11.7503L13.9527 12.6556L14.3328 12.7802L14.6296 11.8749L14.2495 11.7503Z" fill="white" mask="url(#path-2-outside-2_1_1409)"/>
</svg>
