<svg width="24" height="25" viewBox="0 0 24 25" fill="none" xmlns="http://www.w3.org/2000/svg">
<mask id="path-1-outside-1_72_174" maskUnits="userSpaceOnUse" x="0.499512" y="3.30298" width="23" height="18" fill="black">
<rect fill="white" x="0.499512" y="3.30298" width="23" height="18"/>
<path d="M22.5001 8.48835C22.5015 8.25151 22.4179 8.02203 22.2647 7.84145C22.1114 7.66088 21.8985 7.54116 21.6646 7.50398L20.5404 7.31535C20.4069 7.29297 20.27 7.30148 20.1404 7.34022C20.0107 7.37897 19.8916 7.44692 19.7923 7.53885L19.4818 6.45548C19.3022 5.83634 18.9269 5.29202 18.4122 4.90399C17.8974 4.51596 17.2708 4.3051 16.6261 4.30298H7.64713C7.00242 4.30502 6.37572 4.51584 5.86086 4.90387C5.34601 5.29191 4.9707 5.83628 4.79113 6.45548L4.39963 7.82235C4.31408 7.6532 4.17698 7.51561 4.00813 7.42947C3.83928 7.34333 3.64742 7.31308 3.46025 7.3431L2.33788 7.53173C2.10839 7.56912 1.89913 7.68538 1.74616 7.86049C1.59319 8.0356 1.50609 8.25858 1.49987 8.49101C1.49365 8.72344 1.5687 8.95076 1.71209 9.13379C1.85547 9.31683 2.05822 9.44412 2.28538 9.49373L3.37138 9.72998L3.00613 10.279C2.60736 10.8776 2.39492 11.581 2.39563 12.3002C2.39825 12.3145 2.39263 15.8987 2.39638 15.9115V19.1717C2.39717 19.4879 2.52337 19.7909 2.74728 20.0142C2.9712 20.2375 3.27454 20.3628 3.59075 20.3627H4.70375C5.02003 20.3629 5.32347 20.2376 5.54746 20.0143C5.77146 19.791 5.89771 19.488 5.8985 19.1717V18.2845H18.3751V19.1717C18.3753 19.4875 18.5008 19.7902 18.7241 20.0135C18.9473 20.2368 19.25 20.3624 19.5658 20.3627H20.6825C20.9988 20.3629 21.3022 20.2376 21.5262 20.0143C21.7502 19.791 21.8765 19.488 21.8773 19.1717C21.8769 17.4662 21.878 14.0117 21.8773 12.3002C21.9121 11.3189 21.4123 10.4237 20.8513 9.65423L21.7175 9.46523C21.9399 9.41624 22.1388 9.29261 22.2812 9.11489C22.4236 8.93717 22.5008 8.71607 22.5001 8.48835ZM5.51188 6.6621C5.64627 6.19929 5.92692 5.79245 6.31183 5.50245C6.69673 5.21245 7.1652 5.05489 7.64713 5.05335H16.6261C17.108 5.05497 17.5764 5.21257 17.9612 5.50256C18.346 5.79256 18.6266 6.19936 18.761 6.6621L19.211 8.23223C19.376 8.36348 5.01575 8.2341 5.045 8.27835L5.51188 6.6621ZM2.44813 8.76135C2.39206 8.74841 2.34218 8.71653 2.30688 8.67109C2.27158 8.62564 2.25303 8.56942 2.25435 8.5119C2.25567 8.45437 2.27678 8.39906 2.31413 8.35529C2.35148 8.31152 2.40278 8.28196 2.45938 8.2716L3.58588 8.0826C3.61709 8.07795 3.64896 8.08388 3.67642 8.09945C3.70387 8.11501 3.72533 8.13931 3.73738 8.16848L4.001 8.7741C3.98638 8.81723 3.84163 9.01673 3.81725 9.05985L2.44813 8.76135ZM21.1276 15.8957C21.1274 16.33 20.955 16.7464 20.6481 17.0536C20.3412 17.3608 19.925 17.5338 19.4908 17.5345H4.7825C4.34797 17.5337 3.93152 17.3605 3.62461 17.0528C3.3177 16.7452 3.14543 16.3284 3.14563 15.8939V15.4967H21.1276V15.8957ZM5.1485 19.1717C5.14791 19.2892 5.10074 19.4015 5.01735 19.4842C4.93397 19.5669 4.82118 19.6131 4.70375 19.6127H3.59075C3.47339 19.613 3.3607 19.5668 3.27739 19.4841C3.19409 19.4014 3.14697 19.2891 3.14638 19.1717V17.6305C3.41507 17.8746 3.73239 18.059 4.07746 18.1716C4.42254 18.2843 4.78755 18.3226 5.1485 18.2841V19.1717ZM20.6825 19.6127H19.5658C19.4489 19.6125 19.3369 19.566 19.2543 19.4833C19.1717 19.4006 19.1252 19.2886 19.1251 19.1717V18.2845C19.4861 18.3229 19.8512 18.2845 20.1963 18.1717C20.5414 18.0589 20.8587 17.8744 21.1273 17.6301V19.1717C21.1267 19.2892 21.0795 19.4015 20.9961 19.4842C20.9127 19.5669 20.7999 19.6131 20.6825 19.6127ZM21.1276 14.7471H3.14563V12.3002C3.14496 11.7288 3.31383 11.1699 3.63088 10.6945C3.90425 10.2632 4.47838 9.46523 4.71575 9.02835H19.5575C19.5988 9.1011 19.6336 9.1776 19.6801 9.24773L20.6424 10.6945C20.9594 11.1699 21.1283 11.7288 21.1276 12.3002V14.7471ZM21.5551 8.73285L20.4058 8.98373C20.2948 8.82691 20.1967 8.66137 20.1125 8.48873C20.2059 8.31473 20.2494 8.01623 20.4163 8.05485L21.5435 8.24385C21.5994 8.25491 21.6499 8.28472 21.6866 8.32835C21.7233 8.37198 21.7441 8.42684 21.7454 8.48384C21.7467 8.54084 21.7285 8.59659 21.6938 8.64186C21.6592 8.68714 21.6105 8.71924 21.5551 8.73285Z"/>
</mask>
<path d="M22.5001 8.48835C22.5015 8.25151 22.4179 8.02203 22.2647 7.84145C22.1114 7.66088 21.8985 7.54116 21.6646 7.50398L20.5404 7.31535C20.4069 7.29297 20.27 7.30148 20.1404 7.34022C20.0107 7.37897 19.8916 7.44692 19.7923 7.53885L19.4818 6.45548C19.3022 5.83634 18.9269 5.29202 18.4122 4.90399C17.8974 4.51596 17.2708 4.3051 16.6261 4.30298H7.64713C7.00242 4.30502 6.37572 4.51584 5.86086 4.90387C5.34601 5.29191 4.9707 5.83628 4.79113 6.45548L4.39963 7.82235C4.31408 7.6532 4.17698 7.51561 4.00813 7.42947C3.83928 7.34333 3.64742 7.31308 3.46025 7.3431L2.33788 7.53173C2.10839 7.56912 1.89913 7.68538 1.74616 7.86049C1.59319 8.0356 1.50609 8.25858 1.49987 8.49101C1.49365 8.72344 1.5687 8.95076 1.71209 9.13379C1.85547 9.31683 2.05822 9.44412 2.28538 9.49373L3.37138 9.72998L3.00613 10.279C2.60736 10.8776 2.39492 11.581 2.39563 12.3002C2.39825 12.3145 2.39263 15.8987 2.39638 15.9115V19.1717C2.39717 19.4879 2.52337 19.7909 2.74728 20.0142C2.9712 20.2375 3.27454 20.3628 3.59075 20.3627H4.70375C5.02003 20.3629 5.32347 20.2376 5.54746 20.0143C5.77146 19.791 5.89771 19.488 5.8985 19.1717V18.2845H18.3751V19.1717C18.3753 19.4875 18.5008 19.7902 18.7241 20.0135C18.9473 20.2368 19.25 20.3624 19.5658 20.3627H20.6825C20.9988 20.3629 21.3022 20.2376 21.5262 20.0143C21.7502 19.791 21.8765 19.488 21.8773 19.1717C21.8769 17.4662 21.878 14.0117 21.8773 12.3002C21.9121 11.3189 21.4123 10.4237 20.8513 9.65423L21.7175 9.46523C21.9399 9.41624 22.1388 9.29261 22.2812 9.11489C22.4236 8.93717 22.5008 8.71607 22.5001 8.48835ZM5.51188 6.6621C5.64627 6.19929 5.92692 5.79245 6.31183 5.50245C6.69673 5.21245 7.1652 5.05489 7.64713 5.05335H16.6261C17.108 5.05497 17.5764 5.21257 17.9612 5.50256C18.346 5.79256 18.6266 6.19936 18.761 6.6621L19.211 8.23223C19.376 8.36348 5.01575 8.2341 5.045 8.27835L5.51188 6.6621ZM2.44813 8.76135C2.39206 8.74841 2.34218 8.71653 2.30688 8.67109C2.27158 8.62564 2.25303 8.56942 2.25435 8.5119C2.25567 8.45437 2.27678 8.39906 2.31413 8.35529C2.35148 8.31152 2.40278 8.28196 2.45938 8.2716L3.58588 8.0826C3.61709 8.07795 3.64896 8.08388 3.67642 8.09945C3.70387 8.11501 3.72533 8.13931 3.73738 8.16848L4.001 8.7741C3.98638 8.81723 3.84163 9.01673 3.81725 9.05985L2.44813 8.76135ZM21.1276 15.8957C21.1274 16.33 20.955 16.7464 20.6481 17.0536C20.3412 17.3608 19.925 17.5338 19.4908 17.5345H4.7825C4.34797 17.5337 3.93152 17.3605 3.62461 17.0528C3.3177 16.7452 3.14543 16.3284 3.14563 15.8939V15.4967H21.1276V15.8957ZM5.1485 19.1717C5.14791 19.2892 5.10074 19.4015 5.01735 19.4842C4.93397 19.5669 4.82118 19.6131 4.70375 19.6127H3.59075C3.47339 19.613 3.3607 19.5668 3.27739 19.4841C3.19409 19.4014 3.14697 19.2891 3.14638 19.1717V17.6305C3.41507 17.8746 3.73239 18.059 4.07746 18.1716C4.42254 18.2843 4.78755 18.3226 5.1485 18.2841V19.1717ZM20.6825 19.6127H19.5658C19.4489 19.6125 19.3369 19.566 19.2543 19.4833C19.1717 19.4006 19.1252 19.2886 19.1251 19.1717V18.2845C19.4861 18.3229 19.8512 18.2845 20.1963 18.1717C20.5414 18.0589 20.8587 17.8744 21.1273 17.6301V19.1717C21.1267 19.2892 21.0795 19.4015 20.9961 19.4842C20.9127 19.5669 20.7999 19.6131 20.6825 19.6127ZM21.1276 14.7471H3.14563V12.3002C3.14496 11.7288 3.31383 11.1699 3.63088 10.6945C3.90425 10.2632 4.47838 9.46523 4.71575 9.02835H19.5575C19.5988 9.1011 19.6336 9.1776 19.6801 9.24773L20.6424 10.6945C20.9594 11.1699 21.1283 11.7288 21.1276 12.3002V14.7471ZM21.5551 8.73285L20.4058 8.98373C20.2948 8.82691 20.1967 8.66137 20.1125 8.48873C20.2059 8.31473 20.2494 8.01623 20.4163 8.05485L21.5435 8.24385C21.5994 8.25491 21.6499 8.28472 21.6866 8.32835C21.7233 8.37198 21.7441 8.42684 21.7454 8.48384C21.7467 8.54084 21.7285 8.59659 21.6938 8.64186C21.6592 8.68714 21.6105 8.71924 21.5551 8.73285Z" fill="#004B94"/>
<path d="M22.5001 8.48835C22.5015 8.25151 22.4179 8.02203 22.2647 7.84145C22.1114 7.66088 21.8985 7.54116 21.6646 7.50398L20.5404 7.31535C20.4069 7.29297 20.27 7.30148 20.1404 7.34022C20.0107 7.37897 19.8916 7.44692 19.7923 7.53885L19.4818 6.45548C19.3022 5.83634 18.9269 5.29202 18.4122 4.90399C17.8974 4.51596 17.2708 4.3051 16.6261 4.30298H7.64713C7.00242 4.30502 6.37572 4.51584 5.86086 4.90387C5.34601 5.29191 4.9707 5.83628 4.79113 6.45548L4.39963 7.82235C4.31408 7.6532 4.17698 7.51561 4.00813 7.42947C3.83928 7.34333 3.64742 7.31308 3.46025 7.3431L2.33788 7.53173C2.10839 7.56912 1.89913 7.68538 1.74616 7.86049C1.59319 8.0356 1.50609 8.25858 1.49987 8.49101C1.49365 8.72344 1.5687 8.95076 1.71209 9.13379C1.85547 9.31683 2.05822 9.44412 2.28538 9.49373L3.37138 9.72998L3.00613 10.279C2.60736 10.8776 2.39492 11.581 2.39563 12.3002C2.39825 12.3145 2.39263 15.8987 2.39638 15.9115V19.1717C2.39717 19.4879 2.52337 19.7909 2.74728 20.0142C2.9712 20.2375 3.27454 20.3628 3.59075 20.3627H4.70375C5.02003 20.3629 5.32347 20.2376 5.54746 20.0143C5.77146 19.791 5.89771 19.488 5.8985 19.1717V18.2845H18.3751V19.1717C18.3753 19.4875 18.5008 19.7902 18.7241 20.0135C18.9473 20.2368 19.25 20.3624 19.5658 20.3627H20.6825C20.9988 20.3629 21.3022 20.2376 21.5262 20.0143C21.7502 19.791 21.8765 19.488 21.8773 19.1717C21.8769 17.4662 21.878 14.0117 21.8773 12.3002C21.9121 11.3189 21.4123 10.4237 20.8513 9.65423L21.7175 9.46523C21.9399 9.41624 22.1388 9.29261 22.2812 9.11489C22.4236 8.93717 22.5008 8.71607 22.5001 8.48835ZM5.51188 6.6621C5.64627 6.19929 5.92692 5.79245 6.31183 5.50245C6.69673 5.21245 7.1652 5.05489 7.64713 5.05335H16.6261C17.108 5.05497 17.5764 5.21257 17.9612 5.50256C18.346 5.79256 18.6266 6.19936 18.761 6.6621L19.211 8.23223C19.376 8.36348 5.01575 8.2341 5.045 8.27835L5.51188 6.6621ZM2.44813 8.76135C2.39206 8.74841 2.34218 8.71653 2.30688 8.67109C2.27158 8.62564 2.25303 8.56942 2.25435 8.5119C2.25567 8.45437 2.27678 8.39906 2.31413 8.35529C2.35148 8.31152 2.40278 8.28196 2.45938 8.2716L3.58588 8.0826C3.61709 8.07795 3.64896 8.08388 3.67642 8.09945C3.70387 8.11501 3.72533 8.13931 3.73738 8.16848L4.001 8.7741C3.98638 8.81723 3.84163 9.01673 3.81725 9.05985L2.44813 8.76135ZM21.1276 15.8957C21.1274 16.33 20.955 16.7464 20.6481 17.0536C20.3412 17.3608 19.925 17.5338 19.4908 17.5345H4.7825C4.34797 17.5337 3.93152 17.3605 3.62461 17.0528C3.3177 16.7452 3.14543 16.3284 3.14563 15.8939V15.4967H21.1276V15.8957ZM5.1485 19.1717C5.14791 19.2892 5.10074 19.4015 5.01735 19.4842C4.93397 19.5669 4.82118 19.6131 4.70375 19.6127H3.59075C3.47339 19.613 3.3607 19.5668 3.27739 19.4841C3.19409 19.4014 3.14697 19.2891 3.14638 19.1717V17.6305C3.41507 17.8746 3.73239 18.059 4.07746 18.1716C4.42254 18.2843 4.78755 18.3226 5.1485 18.2841V19.1717ZM20.6825 19.6127H19.5658C19.4489 19.6125 19.3369 19.566 19.2543 19.4833C19.1717 19.4006 19.1252 19.2886 19.1251 19.1717V18.2845C19.4861 18.3229 19.8512 18.2845 20.1963 18.1717C20.5414 18.0589 20.8587 17.8744 21.1273 17.6301V19.1717C21.1267 19.2892 21.0795 19.4015 20.9961 19.4842C20.9127 19.5669 20.7999 19.6131 20.6825 19.6127ZM21.1276 14.7471H3.14563V12.3002C3.14496 11.7288 3.31383 11.1699 3.63088 10.6945C3.90425 10.2632 4.47838 9.46523 4.71575 9.02835H19.5575C19.5988 9.1011 19.6336 9.1776 19.6801 9.24773L20.6424 10.6945C20.9594 11.1699 21.1283 11.7288 21.1276 12.3002V14.7471ZM21.5551 8.73285L20.4058 8.98373C20.2948 8.82691 20.1967 8.66137 20.1125 8.48873C20.2059 8.31473 20.2494 8.01623 20.4163 8.05485L21.5435 8.24385C21.5994 8.25491 21.6499 8.28472 21.6866 8.32835C21.7233 8.37198 21.7441 8.42684 21.7454 8.48384C21.7467 8.54084 21.7285 8.59659 21.6938 8.64186C21.6592 8.68714 21.6105 8.71924 21.5551 8.73285Z" stroke="#004B94" stroke-width="0.6" mask="url(#path-1-outside-1_72_174)"/>
<mask id="path-2-outside-2_72_174" maskUnits="userSpaceOnUse" x="4.11523" y="10.1108" width="16" height="4" fill="black">
<rect fill="white" x="4.11523" y="10.1108" width="16" height="4"/>
<path d="M7.82161 11.6511C7.74563 11.5284 7.64086 11.4261 7.51639 11.353C7.39191 11.2799 7.25149 11.2383 7.1073 11.2318L5.86374 11.1749C5.69275 11.1671 5.52536 11.2257 5.39658 11.3385C5.26781 11.4513 5.18762 11.6095 5.1728 11.78L5.11786 12.4087C5.10262 12.5794 5.15421 12.7493 5.26176 12.8828C5.36932 13.0162 5.52444 13.1026 5.69448 13.124L8.3357 13.4609C8.39494 13.4686 8.45514 13.4593 8.50931 13.4341C8.56348 13.4089 8.60939 13.3689 8.64173 13.3187C8.67407 13.2685 8.69149 13.2101 8.69199 13.1504C8.69249 13.0906 8.67604 13.032 8.64454 12.9812L7.82161 11.6511ZM5.77469 12.4974C5.76653 12.4965 5.75907 12.4924 5.75388 12.486C5.74869 12.4797 5.74619 12.4715 5.7469 12.4633L5.80185 11.8349C5.80249 11.8268 5.80628 11.8192 5.8124 11.8138C5.81853 11.8084 5.82652 11.8055 5.83469 11.8059L7.07856 11.8627C7.12009 11.8646 7.16053 11.8766 7.19635 11.8977C7.23218 11.9188 7.26232 11.9483 7.28414 11.9837L7.75876 12.7504L5.77469 12.4974ZM18.4096 11.1115L17.166 11.1683C17.0218 11.1748 16.8814 11.2164 16.757 11.2894C16.6325 11.3624 16.5277 11.4647 16.4517 11.5874L15.6288 12.9174C15.5999 12.9654 15.5843 13.0201 15.5833 13.0761C15.5824 13.1321 15.5963 13.1873 15.6235 13.2362C15.6507 13.2851 15.6903 13.3259 15.7384 13.3546C15.7864 13.3833 15.8412 13.3989 15.8972 13.3996C15.9105 13.3996 15.9238 13.3988 15.937 13.3971L18.5788 13.0605C18.7489 13.0391 18.9041 12.9525 19.0117 12.819C19.1192 12.6854 19.1708 12.5154 19.1554 12.3446L19.1005 11.7162C19.0852 11.5459 19.0049 11.388 18.8762 11.2754C18.7475 11.1627 18.5804 11.104 18.4096 11.1115ZM18.4989 12.434L16.5145 12.6866L16.9888 11.9199C17.0107 11.8845 17.0409 11.855 17.0768 11.8339C17.1127 11.8129 17.1532 11.801 17.1947 11.7992L18.4383 11.7424C18.4463 11.7427 18.4539 11.7457 18.4599 11.7509C18.4659 11.7562 18.47 11.7633 18.4714 11.7711L18.5264 12.3996C18.5272 12.4077 18.5248 12.4159 18.5196 12.4223C18.5145 12.4288 18.5071 12.4329 18.4989 12.434ZM14.8409 11.4238C13.0924 11.8151 11.2792 11.8167 9.53 11.4285C9.47468 11.413 9.41619 11.4129 9.36082 11.4282C9.30545 11.4435 9.25529 11.4736 9.21576 11.5153C9.17623 11.557 9.14881 11.6086 9.13646 11.6647C9.12412 11.7208 9.12731 11.7792 9.14569 11.8337L9.692 13.4483C9.7104 13.5026 9.74322 13.5509 9.78694 13.588C9.83066 13.6251 9.88363 13.6496 9.94021 13.6589C10.8752 13.8837 14.1016 13.7258 14.4086 13.6611C14.4695 13.6551 14.5274 13.6315 14.5751 13.5932C14.6229 13.5549 14.6585 13.5036 14.6776 13.4454L15.2075 11.8311C15.2242 11.7784 15.2268 11.7221 15.215 11.668C15.2033 11.6139 15.1777 11.5638 15.1406 11.5227C15.1036 11.4815 15.0565 11.4507 15.0039 11.4334C14.9513 11.4161 14.8951 11.4127 14.8409 11.4238ZM14.1427 13.0507C12.8407 13.1721 11.5305 13.1761 10.2279 13.0627L9.92284 12.1602C11.418 12.4154 12.946 12.4104 14.4395 12.1453L14.1427 13.0507Z"/>
</mask>
<path d="M7.82161 11.6511C7.74563 11.5284 7.64086 11.4261 7.51639 11.353C7.39191 11.2799 7.25149 11.2383 7.1073 11.2318L5.86374 11.1749C5.69275 11.1671 5.52536 11.2257 5.39658 11.3385C5.26781 11.4513 5.18762 11.6095 5.1728 11.78L5.11786 12.4087C5.10262 12.5794 5.15421 12.7493 5.26176 12.8828C5.36932 13.0162 5.52444 13.1026 5.69448 13.124L8.3357 13.4609C8.39494 13.4686 8.45514 13.4593 8.50931 13.4341C8.56348 13.4089 8.60939 13.3689 8.64173 13.3187C8.67407 13.2685 8.69149 13.2101 8.69199 13.1504C8.69249 13.0906 8.67604 13.032 8.64454 12.9812L7.82161 11.6511ZM5.77469 12.4974C5.76653 12.4965 5.75907 12.4924 5.75388 12.486C5.74869 12.4797 5.74619 12.4715 5.7469 12.4633L5.80185 11.8349C5.80249 11.8268 5.80628 11.8192 5.8124 11.8138C5.81853 11.8084 5.82652 11.8055 5.83469 11.8059L7.07856 11.8627C7.12009 11.8646 7.16053 11.8766 7.19635 11.8977C7.23218 11.9188 7.26232 11.9483 7.28414 11.9837L7.75876 12.7504L5.77469 12.4974ZM18.4096 11.1115L17.166 11.1683C17.0218 11.1748 16.8814 11.2164 16.757 11.2894C16.6325 11.3624 16.5277 11.4647 16.4517 11.5874L15.6288 12.9174C15.5999 12.9654 15.5843 13.0201 15.5833 13.0761C15.5824 13.1321 15.5963 13.1873 15.6235 13.2362C15.6507 13.2851 15.6903 13.3259 15.7384 13.3546C15.7864 13.3833 15.8412 13.3989 15.8972 13.3996C15.9105 13.3996 15.9238 13.3988 15.937 13.3971L18.5788 13.0605C18.7489 13.0391 18.9041 12.9525 19.0117 12.819C19.1192 12.6854 19.1708 12.5154 19.1554 12.3446L19.1005 11.7162C19.0852 11.5459 19.0049 11.388 18.8762 11.2754C18.7475 11.1627 18.5804 11.104 18.4096 11.1115ZM18.4989 12.434L16.5145 12.6866L16.9888 11.9199C17.0107 11.8845 17.0409 11.855 17.0768 11.8339C17.1127 11.8129 17.1532 11.801 17.1947 11.7992L18.4383 11.7424C18.4463 11.7427 18.4539 11.7457 18.4599 11.7509C18.4659 11.7562 18.47 11.7633 18.4714 11.7711L18.5264 12.3996C18.5272 12.4077 18.5248 12.4159 18.5196 12.4223C18.5145 12.4288 18.5071 12.4329 18.4989 12.434ZM14.8409 11.4238C13.0924 11.8151 11.2792 11.8167 9.53 11.4285C9.47468 11.413 9.41619 11.4129 9.36082 11.4282C9.30545 11.4435 9.25529 11.4736 9.21576 11.5153C9.17623 11.557 9.14881 11.6086 9.13646 11.6647C9.12412 11.7208 9.12731 11.7792 9.14569 11.8337L9.692 13.4483C9.7104 13.5026 9.74322 13.5509 9.78694 13.588C9.83066 13.6251 9.88363 13.6496 9.94021 13.6589C10.8752 13.8837 14.1016 13.7258 14.4086 13.6611C14.4695 13.6551 14.5274 13.6315 14.5751 13.5932C14.6229 13.5549 14.6585 13.5036 14.6776 13.4454L15.2075 11.8311C15.2242 11.7784 15.2268 11.7221 15.215 11.668C15.2033 11.6139 15.1777 11.5638 15.1406 11.5227C15.1036 11.4815 15.0565 11.4507 15.0039 11.4334C14.9513 11.4161 14.8951 11.4127 14.8409 11.4238ZM14.1427 13.0507C12.8407 13.1721 11.5305 13.1761 10.2279 13.0627L9.92284 12.1602C11.418 12.4154 12.946 12.4104 14.4395 12.1453L14.1427 13.0507Z" fill="#004B94"/>
<path d="M7.82161 11.6511L7.99168 11.5459L7.99166 11.5459L7.82161 11.6511ZM7.1073 11.2318L7.09817 11.4316L7.09825 11.4316L7.1073 11.2318ZM5.86374 11.1749L5.87287 10.9751L5.87287 10.9751L5.86374 11.1749ZM5.1728 11.78L5.37204 11.7974L5.37205 11.7973L5.1728 11.78ZM5.11786 12.4087L5.31706 12.4265L5.3171 12.4261L5.11786 12.4087ZM5.69448 13.124L5.71979 12.9256L5.71937 12.9255L5.69448 13.124ZM8.3357 13.4609L8.36136 13.2626L8.36101 13.2625L8.3357 13.4609ZM8.64454 12.9812L8.47446 13.0865L8.4746 13.0867L8.64454 12.9812ZM5.77469 12.4974L5.79998 12.299L5.79793 12.2988L5.77469 12.4974ZM5.7469 12.4633L5.54766 12.4459L5.54765 12.446L5.7469 12.4633ZM5.80185 11.8349L6.00109 11.8524L6.00122 11.8507L5.80185 11.8349ZM5.83469 11.8059L5.84382 11.6061L5.84331 11.6061L5.83469 11.8059ZM7.07856 11.8627L7.06943 12.0625L7.06948 12.0625L7.07856 11.8627ZM7.28414 11.9837L7.11391 12.0887L7.11409 12.0889L7.28414 11.9837ZM7.75876 12.7504L7.73347 12.9488L8.14964 13.0018L7.92882 12.6451L7.75876 12.7504ZM18.4096 11.1115L18.4009 10.9117L18.4004 10.9117L18.4096 11.1115ZM17.166 11.1683L17.175 11.3681L17.1751 11.3681L17.166 11.1683ZM16.4517 11.5874L16.2817 11.482L16.2816 11.4821L16.4517 11.5874ZM15.6288 12.9174L15.4587 12.8122L15.4573 12.8144L15.6288 12.9174ZM15.8972 13.3996L15.8944 13.5996L15.8971 13.5996L15.8972 13.3996ZM15.937 13.3971L15.9117 13.1987L15.9116 13.1987L15.937 13.3971ZM18.5788 13.0605L18.5539 12.8621L18.5535 12.8621L18.5788 13.0605ZM19.1554 12.3446L18.9562 12.362L18.9562 12.3625L19.1554 12.3446ZM19.1005 11.7162L19.2997 11.6988L19.2997 11.6983L19.1005 11.7162ZM18.4989 12.434L18.4739 12.2355L18.4737 12.2356L18.4989 12.434ZM16.5145 12.6866L16.3444 12.5814L16.1239 12.9379L16.5398 12.885L16.5145 12.6866ZM16.9888 11.9199L17.1589 12.0251L17.159 12.0249L16.9888 11.9199ZM17.1947 11.7992L17.2031 11.9991L17.2039 11.999L17.1947 11.7992ZM18.4383 11.7424L18.4459 11.5425L18.4375 11.5422L18.4292 11.5426L18.4383 11.7424ZM18.4714 11.7711L18.6707 11.7537L18.6699 11.7444L18.6682 11.7352L18.4714 11.7711ZM18.5264 12.3996L18.3271 12.417L18.3274 12.4191L18.5264 12.3996ZM14.8409 11.4238L14.801 11.2278L14.7972 11.2286L14.8409 11.4238ZM9.53 11.4285L9.476 11.6214L9.48667 11.6238L9.53 11.4285ZM9.14569 11.8337L8.95621 11.8977L8.95624 11.8978L9.14569 11.8337ZM9.692 13.4483L9.50255 13.5124L9.50258 13.5125L9.692 13.4483ZM9.94021 13.6589L9.98696 13.4644L9.9799 13.4627L9.97273 13.4616L9.94021 13.6589ZM14.4086 13.6611L14.389 13.4621L14.378 13.4632L14.3673 13.4654L14.4086 13.6611ZM14.6776 13.4454L14.8676 13.5079L14.8676 13.5078L14.6776 13.4454ZM15.2075 11.8311L15.3975 11.8935L15.3982 11.8914L15.2075 11.8311ZM14.1427 13.0507L14.1612 13.2498L14.2918 13.2377L14.3327 13.113L14.1427 13.0507ZM10.2279 13.0627L10.0384 13.1267L10.0803 13.2506L10.2105 13.2619L10.2279 13.0627ZM9.92284 12.1602L9.95649 11.963L9.62602 11.9066L9.73337 12.2242L9.92284 12.1602ZM14.4395 12.1453L14.6296 12.2077L14.7337 11.89L14.4046 11.9484L14.4395 12.1453ZM7.99166 11.5459C7.89855 11.3955 7.77017 11.2701 7.61764 11.1805L7.41513 11.5255C7.51155 11.5821 7.5927 11.6614 7.65156 11.7564L7.99166 11.5459ZM7.61764 11.1805C7.46512 11.091 7.29305 11.04 7.11635 11.032L7.09825 11.4316C7.20994 11.4366 7.31871 11.4689 7.41513 11.5255L7.61764 11.1805ZM7.11643 11.032L5.87287 10.9751L5.85461 11.3747L7.09817 11.4316L7.11643 11.032ZM5.87287 10.9751C5.65031 10.965 5.43243 11.0413 5.26482 11.188L5.52834 11.489C5.61828 11.4102 5.73519 11.3693 5.85461 11.3747L5.87287 10.9751ZM5.26482 11.188C5.09721 11.3348 4.99284 11.5407 4.97355 11.7627L5.37205 11.7973C5.3824 11.6782 5.4384 11.5677 5.52834 11.489L5.26482 11.188ZM4.97356 11.7626L4.91862 12.3913L5.3171 12.4261L5.37204 11.7974L4.97356 11.7626ZM4.91865 12.3909C4.8988 12.6132 4.96599 12.8345 5.10606 13.0083L5.41747 12.7572C5.34243 12.6641 5.30643 12.5456 5.31706 12.4265L4.91865 12.3909ZM5.10606 13.0083C5.24613 13.182 5.44815 13.2946 5.66959 13.3224L5.71937 12.9255C5.60074 12.9106 5.49251 12.8503 5.41747 12.7572L5.10606 13.0083ZM5.66917 13.3224L8.31039 13.6593L8.36101 13.2625L5.71979 12.9256L5.66917 13.3224ZM8.31004 13.6593C8.4068 13.6718 8.50512 13.6566 8.5936 13.6155L8.42502 13.2527C8.40516 13.262 8.38309 13.2654 8.36136 13.2626L8.31004 13.6593ZM8.5936 13.6155C8.68208 13.5743 8.75708 13.509 8.80989 13.4269L8.47357 13.2104C8.46171 13.2288 8.44488 13.2435 8.42502 13.2527L8.5936 13.6155ZM8.80989 13.4269C8.86271 13.3449 8.89117 13.2496 8.89199 13.152L8.492 13.1487C8.49182 13.1706 8.48543 13.192 8.47357 13.2104L8.80989 13.4269ZM8.89199 13.152C8.8928 13.0545 8.86592 12.9587 8.81448 12.8758L8.4746 13.0867C8.48615 13.1053 8.49218 13.1268 8.492 13.1487L8.89199 13.152ZM8.81462 12.876L7.99168 11.5459L7.65153 11.7564L8.47446 13.0865L8.81462 12.876ZM5.79793 12.2988C5.84145 12.3039 5.88126 12.3257 5.90893 12.3597L5.59883 12.6124C5.63688 12.6591 5.69162 12.6891 5.75144 12.6961L5.79793 12.2988ZM5.90893 12.3597C5.93659 12.3936 5.94995 12.4371 5.94615 12.4807L5.54765 12.446C5.54243 12.506 5.56079 12.5657 5.59883 12.6124L5.90893 12.3597ZM5.94614 12.4808L6.00109 11.8524L5.60261 11.8175L5.54766 12.4459L5.94614 12.4808ZM6.00122 11.8507C5.99777 11.8942 5.97759 11.9347 5.94492 11.9636L5.67989 11.664C5.63497 11.7037 5.60721 11.7593 5.60247 11.8191L6.00122 11.8507ZM5.94492 11.9636C5.91225 11.9925 5.86965 12.0076 5.82606 12.0057L5.84331 11.6061C5.78339 11.6035 5.7248 11.6242 5.67989 11.664L5.94492 11.9636ZM5.82556 12.0057L7.06943 12.0625L7.08769 11.6629L5.84382 11.6061L5.82556 12.0057ZM7.06948 12.0625C7.07845 12.0629 7.08719 12.0655 7.09494 12.0701L7.29777 11.7253C7.23386 11.6877 7.16173 11.6663 7.08765 11.6629L7.06948 12.0625ZM7.09494 12.0701C7.10268 12.0746 7.1092 12.081 7.11391 12.0887L7.45437 11.8787C7.41544 11.8156 7.36168 11.7629 7.29777 11.7253L7.09494 12.0701ZM7.11409 12.0889L7.58871 12.8557L7.92882 12.6451L7.45419 11.8784L7.11409 12.0889ZM7.78406 12.552L5.79998 12.2991L5.7494 12.6958L7.73347 12.9488L7.78406 12.552ZM18.4004 10.9117L17.1569 10.9685L17.1751 11.3681L18.4187 11.3113L18.4004 10.9117ZM17.157 10.9685C16.9803 10.9765 16.8083 11.0274 16.6558 11.1169L16.8582 11.4619C16.9546 11.4053 17.0633 11.3731 17.175 11.3681L17.157 10.9685ZM16.6558 11.1169C16.5032 11.2064 16.3748 11.3317 16.2817 11.482L16.6217 11.6927C16.6806 11.5977 16.7617 11.5185 16.8582 11.4619L16.6558 11.1169ZM16.2816 11.4821L15.4587 12.8122L15.7988 13.0227L16.6218 11.6926L16.2816 11.4821ZM15.4573 12.8144C15.4104 12.8926 15.3849 12.9817 15.3834 13.0728L15.7833 13.0794C15.7837 13.0586 15.7895 13.0383 15.8002 13.0204L15.4573 12.8144ZM15.3834 13.0728C15.3819 13.1639 15.4044 13.2538 15.4487 13.3335L15.7982 13.1389C15.7881 13.1207 15.783 13.1002 15.7833 13.0794L15.3834 13.0728ZM15.4487 13.3335C15.4931 13.4131 15.5576 13.4796 15.6358 13.5263L15.8409 13.1829C15.8231 13.1723 15.8084 13.1571 15.7982 13.1389L15.4487 13.3335ZM15.6358 13.5263C15.7141 13.5731 15.8033 13.5984 15.8944 13.5996L15.9 13.1997C15.8792 13.1994 15.8588 13.1936 15.8409 13.1829L15.6358 13.5263ZM15.8971 13.5996C15.9189 13.5997 15.9407 13.5983 15.9623 13.5955L15.9116 13.1987C15.9068 13.1993 15.902 13.1996 15.8972 13.1996L15.8971 13.5996ZM15.9622 13.5955L18.6041 13.2589L18.5535 12.8621L15.9117 13.1987L15.9622 13.5955ZM18.6038 13.2589C18.8253 13.2311 19.0274 13.1183 19.1674 12.9444L18.8559 12.6935C18.7809 12.7867 18.6726 12.8471 18.5539 12.8621L18.6038 13.2589ZM19.1674 12.9444C19.3075 12.7706 19.3746 12.5491 19.3546 12.3267L18.9562 12.3625C18.9669 12.4817 18.931 12.6003 18.8559 12.6935L19.1674 12.9444ZM19.3547 12.3272L19.2997 11.6988L18.9012 11.7336L18.9562 12.362L19.3547 12.3272ZM19.2997 11.6983C19.2798 11.4768 19.1753 11.2714 19.0079 11.1249L18.7445 11.4259C18.8345 11.5046 18.8906 11.615 18.9013 11.7341L19.2997 11.6983ZM19.0079 11.1249C18.8405 10.9784 18.6231 10.902 18.4009 10.9117L18.4182 11.3113C18.5377 11.3061 18.6545 11.3471 18.7445 11.4259L19.0079 11.1249ZM18.4737 12.2356L16.4893 12.4882L16.5398 12.885L18.5242 12.6324L18.4737 12.2356ZM16.6846 12.7918L17.1589 12.0251L16.8188 11.8147L16.3444 12.5814L16.6846 12.7918ZM17.159 12.0249C17.1637 12.0173 17.1702 12.011 17.1779 12.0065L16.9757 11.6614C16.9116 11.6989 16.8577 11.7516 16.8186 11.8148L17.159 12.0249ZM17.1779 12.0065C17.1856 12.002 17.1942 11.9994 17.2031 11.9991L17.1863 11.5994C17.1121 11.6025 17.0398 11.6238 16.9757 11.6614L17.1779 12.0065ZM17.2039 11.999L18.4474 11.9422L18.4292 11.5426L17.1856 11.5995L17.2039 11.999ZM18.4307 11.9423C18.3932 11.9408 18.3573 11.9267 18.3289 11.9021L18.5909 11.5998C18.5505 11.5648 18.4993 11.5446 18.4459 11.5425L18.4307 11.9423ZM18.3289 11.9021C18.3006 11.8775 18.2814 11.844 18.2747 11.807L18.6682 11.7352C18.6586 11.6826 18.6313 11.6348 18.5909 11.5998L18.3289 11.9021ZM18.2722 11.7886L18.3272 12.417L18.7256 12.3821L18.6707 11.7537L18.2722 11.7886ZM18.3274 12.4191C18.3231 12.3755 18.336 12.3319 18.3633 12.2976L18.676 12.5471C18.7136 12.5 18.7313 12.44 18.7254 12.38L18.3274 12.4191ZM18.3633 12.2976C18.3907 12.2633 18.4304 12.241 18.4739 12.2355L18.524 12.6324C18.5838 12.6248 18.6383 12.5942 18.676 12.5471L18.3633 12.2976ZM14.7972 11.2286C13.0773 11.6135 11.2939 11.6151 9.57333 11.2333L9.48667 11.6238C11.2645 12.0183 13.1074 12.0166 14.8845 11.619L14.7972 11.2286ZM9.58392 11.2359C9.49357 11.2106 9.39803 11.2105 9.30758 11.2354L9.41405 11.621C9.43435 11.6154 9.4558 11.6154 9.47608 11.6211L9.58392 11.2359ZM9.30758 11.2354C9.21714 11.2604 9.13523 11.3096 9.07066 11.3776L9.36086 11.6529C9.37536 11.6376 9.39375 11.6266 9.41405 11.621L9.30758 11.2354ZM9.07066 11.3776C9.00608 11.4457 8.9613 11.5301 8.94114 11.6217L9.33179 11.7077C9.33632 11.6872 9.34637 11.6682 9.36086 11.6529L9.07066 11.3776ZM8.94114 11.6217C8.92097 11.7134 8.92618 11.8088 8.95621 11.8977L9.33517 11.7697C9.32843 11.7497 9.32726 11.7283 9.33179 11.7077L8.94114 11.6217ZM8.95624 11.8978L9.50255 13.5124L9.88145 13.3842L9.33514 11.7696L8.95624 11.8978ZM9.50258 13.5125C9.53262 13.6011 9.58618 13.6799 9.65753 13.7404L9.91634 13.4355C9.90026 13.4218 9.88818 13.404 9.88141 13.3841L9.50258 13.5125ZM9.65753 13.7404C9.72888 13.801 9.81534 13.841 9.90768 13.8562L9.97273 13.4616C9.95192 13.4581 9.93243 13.4491 9.91634 13.4355L9.65753 13.7404ZM9.89345 13.8534C10.1486 13.9147 10.5434 13.9473 10.9825 13.9631C11.4263 13.9791 11.9309 13.9783 12.414 13.9686C12.8973 13.9588 13.361 13.9399 13.7237 13.9194C14.0771 13.8994 14.3546 13.8769 14.4498 13.8568L14.3673 13.4654C14.309 13.4777 14.0681 13.4992 13.7011 13.52C13.3433 13.5403 12.8844 13.559 12.4059 13.5686C11.9271 13.5783 11.4306 13.579 10.9969 13.5633C10.5584 13.5475 10.1993 13.5155 9.98696 13.4644L9.89345 13.8534ZM14.4282 13.8602C14.5277 13.8503 14.6222 13.8118 14.7002 13.7493L14.45 13.4372C14.4325 13.4512 14.4113 13.4599 14.389 13.4621L14.4282 13.8602ZM14.7002 13.7493C14.7782 13.6867 14.8364 13.6029 14.8676 13.5079L14.4876 13.383C14.4806 13.4043 14.4675 13.4232 14.45 13.4372L14.7002 13.7493ZM14.8676 13.5078L15.3975 11.8935L15.0175 11.7688L14.4876 13.3831L14.8676 13.5078ZM15.3982 11.8914C15.4254 11.8054 15.4296 11.7138 15.4105 11.6256L15.0196 11.7104C15.0239 11.7305 15.023 11.7513 15.0168 11.7709L15.3982 11.8914ZM15.4105 11.6256C15.3914 11.5375 15.3496 11.4559 15.2893 11.3889L14.992 11.6565C15.0057 11.6717 15.0152 11.6903 15.0196 11.7104L15.4105 11.6256ZM15.2893 11.3889C15.229 11.3218 15.1522 11.2717 15.0665 11.2435L14.9412 11.6233C14.9607 11.6298 14.9782 11.6412 14.992 11.6565L15.2893 11.3889ZM15.0665 11.2435C14.9809 11.2152 14.8894 11.2098 14.801 11.2278L14.8807 11.6198C14.9009 11.6157 14.9217 11.6169 14.9412 11.6233L15.0665 11.2435ZM14.1241 12.8516C12.8341 12.9718 11.5359 12.9758 10.2452 12.8635L10.2105 13.2619C11.5251 13.3764 12.8474 13.3723 14.1612 13.2498L14.1241 12.8516ZM10.4174 12.9987L10.1123 12.0961L9.73337 12.2242L10.0384 13.1267L10.4174 12.9987ZM9.88918 12.3573C11.4071 12.6165 12.9583 12.6114 14.4745 12.3423L14.4046 11.9484C12.9338 12.2095 11.429 12.2144 9.95649 11.963L9.88918 12.3573ZM14.2495 12.083L13.9526 12.9884L14.3327 13.113L14.6296 12.2077L14.2495 12.083Z" fill="#004B94" mask="url(#path-2-outside-2_72_174)"/>
</svg>
