<svg width="25" height="20" viewBox="0 0 25 20" fill="none" xmlns="http://www.w3.org/2000/svg">
<path fill-rule="evenodd" clip-rule="evenodd" d="M10.2855 0.400024H15.0855C19.6107 0.400024 21.8739 0.400024 23.2791 1.80642C24.6855 3.21162 24.6855 5.47482 24.6855 10C24.6855 14.5252 24.6855 16.7884 23.2791 18.1936C21.8739 19.6 19.6107 19.6 15.0855 19.6H10.2855C5.76035 19.6 3.49715 19.6 2.09195 18.1936C0.685547 16.7884 0.685547 14.5252 0.685547 10C0.685547 5.47482 0.685547 3.21162 2.09195 1.80642C3.49715 0.400024 5.76035 0.400024 10.2855 0.400024ZM14.1855 6.40002C14.1855 6.16133 14.2804 5.93241 14.4492 5.76363C14.6179 5.59485 14.8469 5.50002 15.0855 5.50002H21.0855C21.3242 5.50002 21.5532 5.59485 21.7219 5.76363C21.8907 5.93241 21.9855 6.16133 21.9855 6.40002C21.9855 6.63872 21.8907 6.86764 21.7219 7.03642C21.5532 7.2052 21.3242 7.30002 21.0855 7.30002H15.0855C14.8469 7.30002 14.6179 7.2052 14.4492 7.03642C14.2804 6.86764 14.1855 6.63872 14.1855 6.40002ZM15.3855 10C15.3855 9.76133 15.4804 9.53241 15.6492 9.36363C15.8179 9.19485 16.0469 9.10003 16.2855 9.10003H21.0855C21.3242 9.10003 21.5532 9.19485 21.7219 9.36363C21.8907 9.53241 21.9855 9.76133 21.9855 10C21.9855 10.2387 21.8907 10.4676 21.7219 10.6364C21.5532 10.8052 21.3242 10.9 21.0855 10.9H16.2855C16.0469 10.9 15.8179 10.8052 15.6492 10.6364C15.4804 10.4676 15.3855 10.2387 15.3855 10ZM16.5855 13.6C16.5855 13.3613 16.6804 13.1324 16.8492 12.9636C17.0179 12.7948 17.2469 12.7 17.4855 12.7H21.0855C21.3242 12.7 21.5532 12.7948 21.7219 12.9636C21.8907 13.1324 21.9855 13.3613 21.9855 13.6C21.9855 13.8387 21.8907 14.0676 21.7219 14.2364C21.5532 14.4052 21.3242 14.5 21.0855 14.5H17.4855C17.2469 14.5 17.0179 14.4052 16.8492 14.2364C16.6804 14.0676 16.5855 13.8387 16.5855 13.6ZM11.4855 6.40002C11.4855 7.03654 11.2327 7.64699 10.7826 8.09708C10.3325 8.54717 9.72207 8.80002 9.08555 8.80002C8.44903 8.80002 7.83858 8.54717 7.38849 8.09708C6.9384 7.64699 6.68555 7.03654 6.68555 6.40002C6.68555 5.7635 6.9384 5.15306 7.38849 4.70297C7.83858 4.25288 8.44903 4.00002 9.08555 4.00002C9.72207 4.00002 10.3325 4.25288 10.7826 4.70297C11.2327 5.15306 11.4855 5.7635 11.4855 6.40002ZM9.08555 16C13.8855 16 13.8855 14.926 13.8855 13.6C13.8855 12.274 11.7375 11.2 9.08555 11.2C6.43355 11.2 4.28555 12.274 4.28555 13.6C4.28555 14.926 4.28555 16 9.08555 16Z" fill="#004B94"/>
</svg>
