<svg width="24" height="24" viewBox="0 0 24 24" fill="none" xmlns="http://www.w3.org/2000/svg">
<path d="M13.692 9.016V8.504C13.692 8.03467 13.5053 7.656 13.132 7.368C12.7693 7.06933 12.2947 6.92 11.708 6.92C11.1427 6.92 10.684 7.05867 10.332 7.336C9.98 7.61333 9.804 8.00267 9.804 8.504C9.804 9.18667 10.1187 9.68267 10.748 9.992L13.932 11.688C14.3907 11.9333 14.748 12.2907 15.004 12.76C15.2707 13.2187 15.404 13.704 15.404 14.216C15.404 15.0587 15.1107 15.736 14.524 16.248C13.9373 16.76 13.1693 17.048 12.22 17.112V18.584H11.308V17.112C10.3373 17.0267 9.55867 16.7227 8.972 16.2C8.38533 15.6773 8.092 15.0267 8.092 14.248V13.704H9.66V14.248C9.66 14.728 9.85733 15.1227 10.252 15.432C10.6467 15.7307 11.164 15.88 11.804 15.88C12.412 15.88 12.9027 15.7413 13.276 15.464C13.6493 15.176 13.836 14.776 13.836 14.264C13.836 13.5707 13.5267 13.0747 12.908 12.776L9.74 11.08C9.26 10.8133 8.88667 10.4613 8.62 10.024C8.35333 9.576 8.22 9.096 8.22 8.584C8.22 7.73067 8.50267 7.05333 9.068 6.552C9.63333 6.04 10.38 5.752 11.308 5.688V4.232H12.22V5.704C13.1373 5.78933 13.8733 6.088 14.428 6.6C14.9933 7.10133 15.276 7.736 15.276 8.504V9.016H13.692Z" fill="#777E90"/>
</svg>
