<svg width="20" height="13" viewBox="0 0 20 13" fill="none" xmlns="http://www.w3.org/2000/svg">
<g clip-path="url(#clip0_51_450)">
<path d="M2.91009 3.47947C6.82809 -0.352531 13.1781 -0.352531 17.0901 3.47947L19.8001 6.13247C19.8635 6.19383 19.914 6.26732 19.9485 6.34858C19.9829 6.42984 20.0007 6.5172 20.0007 6.60547C20.0007 6.69373 19.9829 6.78109 19.9485 6.86235C19.914 6.94361 19.8635 7.01711 19.8001 7.07847L17.0901 9.73147C13.1721 13.5635 6.82209 13.5635 2.91009 9.73147L0.20009 7.07847C0.136642 7.01711 0.0861866 6.94361 0.051728 6.86235C0.0172695 6.78109 -0.000488281 6.69373 -0.000488281 6.60547C-0.000488281 6.5172 0.0172695 6.42984 0.051728 6.34858C0.0861866 6.26732 0.136642 6.19383 0.20009 6.13247L2.91009 3.47947ZM9.99709 2.11147C7.46409 2.11147 5.40809 4.12447 5.40809 6.60547C5.40809 9.08547 7.46409 11.0995 9.99809 11.0995C12.5301 11.0995 14.5861 9.08647 14.5861 6.60547C14.5861 4.12547 12.5301 2.11147 9.99709 2.11147ZM10.0001 4.60547C10.5305 4.60547 11.0392 4.81618 11.4143 5.19126C11.7894 5.56633 12.0001 6.07504 12.0001 6.60547C12.0001 7.1359 11.7894 7.64461 11.4143 8.01968C11.0392 8.39476 10.5305 8.60547 10.0001 8.60547C9.46966 8.60547 8.96095 8.39476 8.58588 8.01968C8.2108 7.64461 8.00009 7.1359 8.00009 6.60547C8.00009 6.07504 8.2108 5.56633 8.58588 5.19126C8.96095 4.81618 9.46966 4.60547 10.0001 4.60547Z" fill="#888888"/>
</g>
<defs>
<clipPath id="clip0_51_450">
<rect width="20" height="12" fill="white" transform="translate(0 0.605469)"/>
</clipPath>
</defs>
</svg>
