<svg width="38" height="36" viewBox="0 0 38 36" fill="none" xmlns="http://www.w3.org/2000/svg">
<path d="M37 18C37 8.05887 28.9411 0 19 0C9.05887 0 1 8.05887 1 18C1 27.9411 9.05887 36 19 36C28.9411 36 37 27.9411 37 18Z" fill="#1E7BE7"/>
<path fill-rule="evenodd" clip-rule="evenodd" d="M24.7078 15.8694L24.0994 19.7283H20.9024V28.2656H16.6146V19.7283H13.1309V15.8694H16.6146V12.9283C16.6146 9.58249 18.6631 7.73438 21.7972 7.73438C23.2984 7.73438 24.8686 7.99511 24.8686 7.99511V11.2804H23.1384C21.4341 11.2804 20.9024 12.3095 20.9024 13.3653V15.8694H24.7078Z" fill="white"/>
</svg>
