<svg width="32" height="33" viewBox="0 0 32 33" fill="none" xmlns="http://www.w3.org/2000/svg">
<path d="M15.9956 4.3374C19.2546 4.3374 19.6633 4.35104 20.9434 4.40943C22.2201 4.46781 23.0931 4.67078 23.8559 4.9676C24.6568 5.26862 25.3823 5.74086 25.9817 6.35132C26.592 6.95096 27.0644 7.67637 27.3659 8.47708C27.6622 9.24042 27.8652 10.1123 27.9236 11.3896C27.982 12.6697 27.9956 13.0784 27.9956 16.3374C27.9956 19.5964 27.982 20.0051 27.9236 21.2852C27.8652 22.5619 27.6622 23.4349 27.3659 24.1977C27.0644 24.9984 26.592 25.7238 25.9817 26.3235C25.3144 26.9902 24.6449 27.4006 23.8559 27.7072C23.0926 28.004 22.2207 28.207 20.9434 28.2654C19.6633 28.3238 19.2546 28.3374 15.9956 28.3374C12.7366 28.3374 12.3279 28.3238 11.0478 28.2654C9.77108 28.207 8.89807 28.004 8.13529 27.7072C7.34631 27.4006 6.67682 26.9902 6.00952 26.3235C5.34276 25.6562 4.93245 24.9867 4.62581 24.1977C4.32898 23.4344 4.12601 22.5625 4.06763 21.2852C4.00925 20.0051 3.99561 19.5964 3.99561 16.3374C3.99561 13.0784 4.00925 12.6697 4.06763 11.3896C4.12601 10.1129 4.32898 9.23987 4.62581 8.47708C4.93245 7.68756 5.34276 7.01862 6.00952 6.35132C6.60904 5.74097 7.3345 5.26875 8.13529 4.9676C8.89862 4.67078 9.77053 4.46781 11.0478 4.40943C12.3279 4.35104 12.7366 4.3374 15.9956 4.3374ZM15.9956 6.49973C12.7917 6.49973 12.4119 6.51173 11.1466 6.56957C9.97678 6.62304 9.34112 6.81837 8.91826 6.98261C8.35845 7.20086 7.9585 7.46058 7.53837 7.88017C7.11824 8.3003 6.85852 8.6997 6.64081 9.2606C6.47658 9.68292 6.2807 10.3186 6.22777 11.4884C6.16993 12.7537 6.15793 13.1335 6.15793 16.3374C6.15793 19.5413 6.16993 19.9211 6.22777 21.1864C6.28124 22.3562 6.47658 22.9919 6.64081 23.4147C6.85906 23.9746 7.11878 24.3745 7.53837 24.7946C7.9585 25.2148 8.35845 25.4745 8.91881 25.6922C9.34112 25.8564 9.97678 26.0523 11.1466 26.1052C12.4119 26.1631 12.7911 26.1751 15.9956 26.1751C19.2001 26.1751 19.5793 26.1631 20.8446 26.1052C22.0144 26.0518 22.6501 25.8564 23.0729 25.6922C23.6333 25.4739 24.0333 25.2142 24.4528 24.7946C24.873 24.3745 25.1327 23.9746 25.3504 23.4142C25.5146 22.9919 25.7105 22.3562 25.7634 21.1864C25.8213 19.9205 25.8333 19.5413 25.8333 16.3374C25.8333 13.1335 25.8213 12.7537 25.7634 11.4884C25.71 10.3186 25.5146 9.68292 25.3504 9.26006C25.1321 8.6997 24.8724 8.29975 24.4528 7.88017C24.0327 7.46003 23.6333 7.20031 23.0724 6.98261C22.6501 6.81837 22.0144 6.62249 20.8446 6.56957C19.5793 6.51173 19.1995 6.49973 15.9956 6.49973ZM15.9956 20.3374C16.5209 20.3374 17.041 20.2339 17.5263 20.0329C18.0116 19.8319 18.4526 19.5373 18.824 19.1658C19.1955 18.7944 19.4901 18.3534 19.6911 17.8681C19.8921 17.3828 19.9956 16.8627 19.9956 16.3374C19.9956 15.8121 19.8921 15.292 19.6911 14.8067C19.4901 14.3214 19.1955 13.8804 18.824 13.509C18.4526 13.1375 18.0116 12.8429 17.5263 12.6419C17.041 12.4409 16.5209 12.3374 15.9956 12.3374C14.9347 12.3374 13.9173 12.7588 13.1672 13.509C12.417 14.2591 11.9956 15.2765 11.9956 16.3374C11.9956 17.3983 12.417 18.4157 13.1672 19.1658C13.9173 19.916 14.9347 20.3374 15.9956 20.3374ZM15.9956 10.1751C19.3987 10.1751 22.1579 12.9343 22.1579 16.3374C22.1579 19.7405 19.3987 22.4997 15.9956 22.4997C12.5925 22.4997 9.83383 19.7405 9.83383 16.3374C9.83383 12.9343 12.5925 10.1751 15.9956 10.1751ZM23.8417 9.93173C23.8417 10.3138 23.69 10.6801 23.4198 10.9503C23.1497 11.2204 22.7833 11.3722 22.4013 11.3722C22.0192 11.3722 21.6529 11.2204 21.3827 10.9503C21.1126 10.6801 20.9608 10.3138 20.9608 9.93173C20.9608 9.54969 21.1126 9.18331 21.3827 8.91317C21.6529 8.64303 22.0192 8.49127 22.4013 8.49127C22.7833 8.49127 23.1497 8.64303 23.4198 8.91317C23.69 9.18331 23.8417 9.54969 23.8417 9.93173Z" fill="#777E90"/>
</svg>
