<svg width="24" height="25" viewBox="0 0 24 25" fill="none" xmlns="http://www.w3.org/2000/svg">
<path d="M16 18.7898V13.583" stroke="#004B94" stroke-width="1.5" stroke-linecap="round" stroke-linejoin="round"/>
<path d="M8 18.7962V13.583" stroke="#004B94" stroke-width="1.5" stroke-linecap="round" stroke-linejoin="round"/>
<path d="M5.08331 8.33301L3.48553 9.2917C3.18432 9.47241 3.00001 9.79792 3 10.1492V19.8168C2.99999 20.1771 3.19377 20.5095 3.50727 20.687C3.82078 20.8645 4.20553 20.8597 4.51447 20.6743L7.4234 18.929C7.77204 18.7198 8.21264 18.7425 8.5379 18.9865L11.4 21.133C11.7555 21.3997 12.2445 21.3997 12.6 21.133L15.4621 18.9865C15.7874 18.7425 16.228 18.7198 16.5766 18.929L19.4855 20.6743C19.7945 20.8597 20.1792 20.8645 20.4927 20.687C20.8062 20.5095 21 20.1771 21 19.8168V10.1492C21 9.79792 20.8157 9.47242 20.5145 9.29169L18.9167 8.33301" stroke="#004B94" stroke-width="1.5" stroke-linecap="round" stroke-linejoin="round"/>
<path d="M12 15.583V21.3315" stroke="#004B94" stroke-width="1.5" stroke-linecap="round" stroke-linejoin="round"/>
<path d="M8 6.33301V6.33301C8 4.12387 9.79086 2.33301 12 2.33301V2.33301C14.2091 2.33301 16 4.12387 16 6.33301V6.33301" stroke="#004B94" stroke-width="1.5" stroke-linecap="round" stroke-linejoin="round"/>
<path d="M8 6.33301C8 8.13957 9.99331 10.0679 11.1656 11.0461C11.6555 11.4285 12.3427 11.4286 12.8328 11.0465C14.0061 10.0685 16 8.13986 16 6.33301" stroke="#004B94" stroke-width="1.5" stroke-linecap="round" stroke-linejoin="round"/>
<path d="M12.001 5.97193C12.1389 5.97248 12.2504 6.08465 12.25 6.22259C12.2496 6.36053 12.1376 6.47211 11.9997 6.47193C11.8617 6.47174 11.75 6.35987 11.75 6.22193C11.7496 6.15534 11.776 6.0914 11.8232 6.04441C11.8704 5.99742 11.9344 5.97131 12.001 5.97193" stroke="#004B94" stroke-width="1.5" stroke-linecap="round" stroke-linejoin="round"/>
</svg>
