<svg width="24" height="24" viewBox="0 0 24 24" fill="none" xmlns="http://www.w3.org/2000/svg">
<path d="M16 18.4568V13.25" stroke="white" stroke-width="1.5" stroke-linecap="round" stroke-linejoin="round"/>
<path d="M8 18.4632V13.25" stroke="white" stroke-width="1.5" stroke-linecap="round" stroke-linejoin="round"/>
<path d="M5.08331 8L3.48553 8.95869C3.18432 9.13941 3.00001 9.46491 3 9.81618V19.4838C2.99999 19.8441 3.19377 20.1765 3.50727 20.354C3.82078 20.5315 4.20553 20.5267 4.51447 20.3413L7.4234 18.596C7.77204 18.3868 8.21264 18.4095 8.5379 18.6535L11.4 20.8C11.7555 21.0667 12.2445 21.0667 12.6 20.8L15.4621 18.6535C15.7874 18.4095 16.228 18.3867 16.5766 18.596L19.4855 20.3413C19.7945 20.5267 20.1792 20.5315 20.4927 20.354C20.8062 20.1765 21 19.844 21 19.4838V9.81618C21 9.46491 20.8157 9.13941 20.5145 8.95868L18.9167 8" stroke="white" stroke-width="1.5" stroke-linecap="round" stroke-linejoin="round"/>
<path d="M12 15.25V20.9985" stroke="white" stroke-width="1.5" stroke-linecap="round" stroke-linejoin="round"/>
<path d="M8 6V6C8 3.79086 9.79086 2 12 2V2C14.2091 2 16 3.79086 16 6V6" stroke="white" stroke-width="1.5" stroke-linecap="round" stroke-linejoin="round"/>
<path d="M8 6C8 7.80656 9.99331 9.73486 11.1656 10.7131C11.6555 11.0955 12.3427 11.0956 12.8328 10.7135C14.0061 9.73545 16 7.80685 16 6" stroke="white" stroke-width="1.5" stroke-linecap="round" stroke-linejoin="round"/>
<path d="M12.001 5.63892C12.1389 5.63947 12.2504 5.75165 12.25 5.88959C12.2496 6.02753 12.1376 6.1391 11.9997 6.13892C11.8617 6.13874 11.75 6.02686 11.75 5.88892C11.7496 5.82234 11.776 5.75839 11.8232 5.7114C11.8704 5.66441 11.9344 5.6383 12.001 5.63892" stroke="white" stroke-width="1.5" stroke-linecap="round" stroke-linejoin="round"/>
</svg>
