<svg width="20" height="16" viewBox="0 0 20 16" fill="none" xmlns="http://www.w3.org/2000/svg">
<g clip-path="url(#clip0_1_1450)">
<path d="M6.97956 16H0V10.7105C0 8.57018 0.173868 6.88596 0.521604 5.65789C0.885899 4.41228 1.54825 3.29825 2.50867 2.31579C3.46908 1.33333 4.69444 0.561404 6.18474 0L7.55084 3.05263C6.1599 3.54386 5.15809 4.22807 4.54541 5.10526C3.94929 5.98246 3.63467 7.14912 3.60155 8.60526H6.97956V16ZM18.6287 16H11.6492V10.7105C11.6492 8.55263 11.823 6.85965 12.1708 5.63158C12.5351 4.40351 13.1974 3.29825 14.1578 2.31579C15.1348 1.33333 16.3602 0.561404 17.8339 0L19.2 3.05263C17.8091 3.54386 16.8072 4.22807 16.1946 5.10526C15.5984 5.98246 15.2838 7.14912 15.2507 8.60526H18.6287V16Z" fill="#FFAF00"/>
</g>
<defs>
<clipPath id="clip0_1_1450">
<rect width="20" height="16" fill="white"/>
</clipPath>
</defs>
</svg>
