<svg width="24" height="24" viewBox="0 0 24 24" fill="none" xmlns="http://www.w3.org/2000/svg">
<path d="M19.2857 22.2857H4.7143C3.5143 22.2857 2.57144 21.3428 2.57144 20.1428V19.5428L4.80001 3.59995C4.88573 2.48566 5.82858 1.71423 6.85716 1.71423H17.1429C18.1714 1.71423 19.1143 2.48566 19.2857 3.59995L21.4286 19.5428V20.1428C21.4286 21.3428 20.4857 22.2857 19.2857 22.2857ZM12.8572 20.5714H19.2857C19.5429 20.5714 19.7143 20.4 19.7143 20.1428V19.7999L17.5714 3.77138C17.4857 3.59995 17.3143 3.42852 17.1429 3.42852H12.8572V4.28566C12.8572 4.79995 12.5143 5.14281 12 5.14281C11.4857 5.14281 11.1429 4.79995 11.1429 4.28566V3.42852H6.85716C6.68573 3.42852 6.5143 3.59995 6.42858 3.77138L4.28573 19.7142V20.1428C4.28573 20.4 4.45716 20.5714 4.7143 20.5714H11.1429V17.9999C11.1429 17.4857 11.4857 17.1428 12 17.1428C12.5143 17.1428 12.8572 17.4857 12.8572 17.9999V20.5714ZM12 15.4285C11.4857 15.4285 11.1429 15.0857 11.1429 14.5714V11.9999C11.1429 11.4857 11.4857 11.1428 12 11.1428C12.5143 11.1428 12.8572 11.4857 12.8572 11.9999V14.5714C12.8572 15.0857 12.5143 15.4285 12 15.4285ZM12 9.42852C11.4857 9.42852 11.1429 9.08566 11.1429 8.57138V7.71423C11.1429 7.19995 11.4857 6.85709 12 6.85709C12.5143 6.85709 12.8572 7.19995 12.8572 7.71423V8.57138C12.8572 9.08566 12.5143 9.42852 12 9.42852Z" fill="white"/>
</svg>
