<svg width="24" height="25" viewBox="0 0 24 25" fill="none" xmlns="http://www.w3.org/2000/svg">
<path d="M19.2856 22.6185H4.71415C3.51415 22.6185 2.57129 21.6757 2.57129 20.4757V19.8757L4.79986 3.93283C4.88557 2.81855 5.82843 2.04712 6.857 2.04712H17.1427C18.1713 2.04712 19.1141 2.81855 19.2856 3.93283L21.4284 19.8757V20.4757C21.4284 21.6757 20.4856 22.6185 19.2856 22.6185ZM12.857 20.9043H19.2856C19.5427 20.9043 19.7141 20.7328 19.7141 20.4757V20.1328L17.5713 4.10426C17.4856 3.93283 17.3141 3.7614 17.1427 3.7614H12.857V4.61855C12.857 5.13283 12.5141 5.47569 11.9999 5.47569C11.4856 5.47569 11.1427 5.13283 11.1427 4.61855V3.7614H6.857C6.68558 3.7614 6.51415 3.93283 6.42843 4.10426L4.28557 20.0471V20.4757C4.28557 20.7328 4.457 20.9043 4.71415 20.9043H11.1427V18.3328C11.1427 17.8185 11.4856 17.4757 11.9999 17.4757C12.5141 17.4757 12.857 17.8185 12.857 18.3328V20.9043ZM11.9999 15.7614C11.4856 15.7614 11.1427 15.4185 11.1427 14.9043V12.3328C11.1427 11.8185 11.4856 11.4757 11.9999 11.4757C12.5141 11.4757 12.857 11.8185 12.857 12.3328V14.9043C12.857 15.4185 12.5141 15.7614 11.9999 15.7614ZM11.9999 9.76141C11.4856 9.76141 11.1427 9.41855 11.1427 8.90426V8.04712C11.1427 7.53283 11.4856 7.18998 11.9999 7.18998C12.5141 7.18998 12.857 7.53283 12.857 8.04712V8.90426C12.857 9.41855 12.5141 9.76141 11.9999 9.76141Z" fill="#004B94"/>
</svg>
