<svg width="24" height="25" viewBox="0 0 24 25" fill="none" xmlns="http://www.w3.org/2000/svg">
<path d="M2 11.6047C2 16.6287 6.088 20.7167 11.113 20.7167C13.204 20.7185 15.2313 19.9979 16.852 18.6767L20.667 22.4917L22 21.1587L18.185 17.3437C19.5065 15.7228 20.2272 13.695 20.225 11.6037C20.225 6.5807 16.137 2.4917 11.113 2.4917C6.088 2.4917 2 6.5797 2 11.6047ZM18.34 11.6047C18.34 15.5897 15.098 18.8317 11.113 18.8317C7.128 18.8317 3.885 15.5897 3.885 11.6047C3.885 7.6187 7.128 4.3767 11.113 4.3767C15.098 4.3767 18.34 7.6197 18.34 11.6047Z" fill="black"/>
</svg>
