<svg width="44" height="45" viewBox="0 0 44 45" fill="none" xmlns="http://www.w3.org/2000/svg">
<rect x="0.5" y="0.833008" width="43" height="43" rx="21.5" stroke="#00000D" stroke-opacity="0.301961"/>
<g clip-path="url(#clip0_1_391)">
<path d="M15.0543 24.729C14.9419 24.6199 14.8524 24.4896 14.7908 24.3456C14.7293 24.2017 14.697 24.0469 14.6958 23.8903C14.6947 23.7337 14.7246 23.5785 14.784 23.4336C14.8434 23.2887 14.931 23.1571 15.0417 23.0464C15.1524 22.9357 15.284 22.8481 15.4289 22.7887C15.5738 22.7293 15.729 22.6994 15.8856 22.7005C16.0422 22.7017 16.197 22.734 16.3409 22.7955C16.4849 22.857 16.6152 22.9466 16.7243 23.059L20.8243 27.159V14.661C20.8197 14.5029 20.8468 14.3455 20.9041 14.1982C20.9614 14.0508 21.0477 13.9164 21.1579 13.803C21.2681 13.6896 21.3999 13.5994 21.5455 13.5379C21.6911 13.4763 21.8477 13.4446 22.0058 13.4446C22.1639 13.4446 22.3204 13.4763 22.466 13.5379C22.6117 13.5994 22.7435 13.6896 22.8536 13.803C22.9638 13.9164 23.0501 14.0508 23.1074 14.1982C23.1647 14.3455 23.1919 14.5029 23.1873 14.661V27.161L27.2783 23.061C27.3873 22.9486 27.5176 22.859 27.6616 22.7975C27.8056 22.736 27.9604 22.7037 28.1169 22.7025C28.2735 22.7014 28.4287 22.7313 28.5736 22.7907C28.7185 22.8501 28.8501 22.9377 28.9608 23.0484C29.0715 23.1591 29.1591 23.2907 29.2185 23.4356C29.2779 23.5805 29.3079 23.7357 29.3067 23.8923C29.3055 24.0489 29.2732 24.2037 29.2117 24.3476C29.1502 24.4916 29.0606 24.6219 28.9483 24.731L22.8373 30.842C22.6159 31.0637 22.3156 31.1885 22.0023 31.189C21.847 31.1896 21.6932 31.1592 21.5498 31.0996C21.4064 31.04 21.2764 30.9524 21.1673 30.842L15.0543 24.729Z" fill="black"/>
</g>
<defs>
<clipPath id="clip0_1_391">
<rect width="14.586" height="17.708" fill="white" transform="translate(14.707 13.479)"/>
</clipPath>
</defs>
</svg>
