<svg width="32" height="33" viewBox="0 0 32 33" fill="none" xmlns="http://www.w3.org/2000/svg">
<rect y="0.333008" width="32" height="32" rx="16" fill="#004B94"/>
<path fill-rule="evenodd" clip-rule="evenodd" d="M18.0909 11.5982C18.4968 11.2236 19.1294 11.2489 19.504 11.6547L22.7348 15.1547C23.0884 15.5378 23.0884 16.1282 22.7348 16.5113L19.504 20.0113C19.1294 20.4171 18.4968 20.4424 18.091 20.0678C17.6851 19.6932 17.6598 19.0606 18.0344 18.6547L19.716 16.833L10 16.833C9.44771 16.833 9 16.3853 9 15.833C9 15.2807 9.44771 14.833 10 14.833L19.716 14.833L18.0344 13.0113C17.6598 12.6055 17.6851 11.9728 18.0909 11.5982Z" fill="#FCFCFD"/>
</svg>
