<svg width="32" height="33" viewBox="0 0 32 33" fill="none" xmlns="http://www.w3.org/2000/svg">
<path d="M5.47128 14.742L19.7673 8.88388C21.1785 8.27375 25.9646 6.32175 25.9646 6.32175C25.9646 6.32175 28.1726 5.46735 27.9892 7.54202C27.9278 8.39588 27.4366 11.3858 26.946 14.6194L25.4121 24.198C25.4121 24.198 25.2894 25.6018 24.2462 25.846C23.203 26.0898 21.4852 24.9916 21.1785 24.7474C20.9332 24.5644 16.5769 21.8188 14.9812 20.4764C14.5518 20.1106 14.0612 19.3778 15.043 18.5244C17.2516 16.5106 19.89 14.0092 21.4852 12.4231C22.2212 11.6908 22.9577 9.98255 19.89 12.0567L11.2388 17.8535C11.2388 17.8535 10.2574 18.4636 8.41635 17.9143C6.57582 17.365 4.42808 16.6332 4.42808 16.6332C4.42808 16.6332 2.95608 15.718 5.47128 14.742Z" fill="#777E90"/>
</svg>
