<svg width="38" height="36" viewBox="0 0 38 36" fill="none" xmlns="http://www.w3.org/2000/svg">
<path d="M37 18C37 8.05887 28.9411 0 19 0C9.05887 0 1 8.05887 1 18C1 27.9411 9.05887 36 19 36C28.9411 36 37 27.9411 37 18Z" fill="#0088CC"/>
<path fill-rule="evenodd" clip-rule="evenodd" d="M10.2459 17.9258C15.1106 15.8011 18.3546 14.4004 19.9777 13.7237C24.6121 11.7914 25.2556 11.5112 25.8833 11.5001C26.0213 11.4977 26.358 11.5566 26.6207 11.7872C26.8833 12.0178 26.9622 12.1672 26.9844 12.2974C27.0066 12.4276 27.0044 12.8326 26.9824 13.0643C26.7312 15.7095 25.7769 21.8149 25.2241 24.7775C24.9902 26.0311 24.5296 26.4514 24.0837 26.4925C23.1146 26.5819 22.3787 25.8505 21.4401 25.2338C19.9714 24.2687 19.4817 23.9124 18.056 22.9706C16.4085 21.8823 17.087 21.5044 18.026 20.5268C18.2717 20.271 22.3426 16.3902 22.403 16.0339C22.4557 15.7233 22.475 15.6831 22.3396 15.5429C22.2042 15.4027 22.0424 15.4202 21.9384 15.4439C21.7911 15.4774 19.5488 16.9608 15.2115 19.8942C14.5455 20.3526 13.9422 20.576 13.4018 20.5643C12.8059 20.5514 11.6598 20.2266 10.8077 19.9489C9.76266 19.6084 8.93206 19.4284 9.00439 18.85C9.04206 18.5488 9.45588 18.2407 10.2459 17.9258Z" fill="white"/>
</svg>
