<svg width="26" height="25" viewBox="0 0 26 25" fill="none" xmlns="http://www.w3.org/2000/svg">
<path d="M23.8693 6.13126C23.0931 6.47524 22.2591 6.70766 21.3824 6.81271C22.287 6.27145 22.9638 5.41955 23.2864 4.416C22.4366 4.9208 21.5064 5.27613 20.5364 5.46653C19.8842 4.77008 19.0202 4.30846 18.0787 4.15334C17.1371 3.99822 16.1707 4.15828 15.3295 4.60867C14.4883 5.05907 13.8193 5.7746 13.4264 6.64416C13.0335 7.51373 12.9387 8.48869 13.1566 9.41768C11.4346 9.33121 9.74993 8.88362 8.21205 8.10395C6.67417 7.32428 5.31741 6.22995 4.22984 4.89199C3.85796 5.53347 3.64414 6.27722 3.64414 7.0693C3.64372 7.78237 3.81932 8.4845 4.15535 9.11342C4.49138 9.74234 4.97745 10.2786 5.57044 10.6746C4.88273 10.6527 4.21019 10.4669 3.60881 10.1326V10.1884C3.60874 11.1885 3.95468 12.1578 4.58793 12.9319C5.22118 13.7059 6.10274 14.2371 7.08303 14.4352C6.44506 14.6078 5.77621 14.6333 5.12698 14.5095C5.40355 15.3701 5.9423 16.1226 6.6678 16.6617C7.3933 17.2008 8.26922 17.4996 9.17295 17.5161C7.63882 18.7204 5.74418 19.3737 3.79382 19.3708C3.44833 19.3709 3.10313 19.3508 2.76001 19.3104C4.73974 20.5833 7.0443 21.2589 9.39793 21.2562C17.3653 21.2562 21.7209 14.6574 21.7209 8.93424C21.7209 8.74831 21.7162 8.56051 21.7078 8.37458C22.555 7.76189 23.2864 7.0032 23.8675 6.13405L23.8693 6.13126Z" fill="#A1A7B7"/>
</svg>
