<svg width="38" height="36" viewBox="0 0 38 36" fill="none" xmlns="http://www.w3.org/2000/svg">
<path d="M37 18C37 8.05887 28.9411 0 19 0C9.05887 0 1 8.05887 1 18C1 27.9411 9.05887 36 19 36C28.9411 36 37 27.9411 37 18Z" fill="#45668E"/>
<path d="M19.8979 24.655C13.0348 24.655 9.12014 19.9076 8.95703 12.0078H12.3949C12.5078 17.806 15.0422 20.262 17.0498 20.7684V12.0078H20.287V17.0084C22.2694 16.7932 24.3519 14.5145 25.0546 12.0078H28.2918C27.7522 15.0968 25.4938 17.3756 23.8878 18.3124C25.4938 19.072 28.066 21.0596 29.0447 24.655H25.4813C24.7159 22.2496 22.8089 20.3886 20.287 20.1354V24.655H19.8979Z" fill="white"/>
</svg>
