<svg width="24" height="17" viewBox="0 0 24 17" fill="none" xmlns="http://www.w3.org/2000/svg">
<g clip-path="url(#clip0_51_1170)">
<path d="M12.2189 5.35256C13.0268 4.29224 14.3396 3.68634 15.7028 3.68634C18.1264 3.68634 20.0956 5.65551 20.0956 8.07909C20.0956 9.49286 19.3887 10.8057 18.2779 11.6135C18.3284 11.9165 18.3789 12.2194 18.3789 12.4718C18.3789 14.239 16.9651 15.6528 15.1979 15.6528H3.18096C1.41376 15.6528 0 14.239 0 12.4718C0 10.9571 1.11081 9.64433 2.57506 9.39187C3.5344 6.56436 6.21044 4.64568 9.18943 4.64568C10.2498 4.64568 11.3101 4.89814 12.2189 5.35256ZM17.672 10.5027C18.3789 9.89679 18.7828 9.03843 18.7828 8.07909C18.7828 6.36239 17.4195 4.94863 15.7028 4.94863C14.7435 4.94863 13.9357 5.35256 13.3297 6.00895C14.4406 6.8673 15.3494 7.97811 15.8038 9.39187C16.5611 9.54334 17.2176 9.94727 17.672 10.5027ZM14.693 10.1492C14.0366 7.67516 11.7645 5.95845 9.18943 5.95845C6.61437 5.95845 4.39275 7.62468 3.68587 10.0988C3.63538 10.4017 3.38293 10.6037 3.07997 10.6037C2.07015 10.6542 1.26229 11.462 1.26229 12.4718C1.26229 13.5322 2.12064 14.3905 3.18096 14.3905H15.1979C16.2582 14.3905 17.1166 13.5322 17.1166 12.4718C17.1166 11.5125 16.3087 10.6542 15.2989 10.6037C15.0464 10.6037 14.7435 10.4017 14.693 10.1492Z" fill="#C5C5C5"/>
<path d="M15.0469 0.656327C15.0469 0.302888 15.3498 -6.10352e-05 15.7033 -6.10352e-05C16.0568 -6.10352e-05 16.3092 0.302888 16.3092 0.656327V2.22156C16.3092 2.575 16.0568 2.87795 15.7033 2.87795C15.3498 2.87795 15.0469 2.575 15.0469 2.22156V0.656327Z" fill="#C5C5C5"/>
<path d="M9.94696 3.28087C9.74499 3.02841 9.74499 2.62448 9.99745 2.37202C10.1994 2.11956 10.6538 2.11956 10.8558 2.37202L11.9666 3.48284C12.219 3.7353 12.219 4.13923 11.9666 4.39167C11.7142 4.64413 11.3103 4.64413 11.0577 4.39167L9.94696 3.28087Z" fill="#C5C5C5"/>
<path d="M21.4087 12.8761C21.6612 13.1287 21.6612 13.5326 21.4087 13.785C21.1562 14.0374 20.7523 14.0374 20.4999 13.785L19.3891 12.6742C19.1366 12.4217 19.1366 12.0178 19.3891 11.7654C19.6415 11.5129 20.0454 11.5129 20.2979 11.7654L21.4087 12.8761Z" fill="#C5C5C5"/>
<path d="M23.125 7.42218C23.4784 7.42218 23.7308 7.72513 23.7308 8.07857C23.7308 8.43201 23.4784 8.73496 23.125 8.73496H21.5598C21.2063 8.73496 20.9033 8.43201 20.9033 8.07857C20.9033 7.72513 21.2063 7.42218 21.5598 7.42218H23.125Z" fill="#C5C5C5"/>
<path d="M20.4999 2.37202C20.7523 2.11956 21.1562 2.11956 21.4087 2.37202C21.6612 2.62448 21.6612 3.02841 21.4087 3.28087L20.2979 4.39167C20.0454 4.64413 19.6415 4.64413 19.3891 4.39167C19.1366 4.13923 19.1366 3.7353 19.3891 3.48284L20.4999 2.37202Z" fill="#C5C5C5"/>
</g>
<defs>
<clipPath id="clip0_51_1170">
<rect width="24" height="16.6957" fill="white"/>
</clipPath>
</defs>
</svg>
