<svg width="38" height="36" viewBox="0 0 38 36" fill="none" xmlns="http://www.w3.org/2000/svg">
<path d="M37 18C37 8.05887 28.9411 0 19 0C9.05887 0 1 8.05887 1 18C1 27.9411 9.05887 36 19 36C28.9411 36 37 27.9411 37 18Z" fill="#20B038"/>
<path d="M22.7784 19.2543C22.3724 19.0102 21.8414 18.7402 21.3625 18.9375C20.9929 19.0881 20.7586 19.6646 20.5192 19.9554C20.3942 20.106 20.2485 20.132 20.0611 20.0541C18.6764 19.5036 17.6196 18.5844 16.8544 17.312C16.7243 17.1146 16.7503 16.9588 16.9065 16.777C17.1355 16.507 17.427 16.2006 17.4895 15.8318C17.552 15.4683 17.3802 15.0424 17.2292 14.7152C17.0366 14.2997 16.818 13.7077 16.4015 13.474C16.0163 13.2559 15.5114 13.3805 15.173 13.6558C14.5848 14.1336 14.2985 14.8866 14.3089 15.6293C14.3089 15.8422 14.3349 16.0499 14.387 16.2577C14.5067 16.7459 14.7305 17.2081 14.9908 17.6391C15.1834 17.9663 15.3916 18.2883 15.6207 18.5947C16.3599 19.5971 17.2813 20.4696 18.3484 21.1188C18.8794 21.4459 19.452 21.7316 20.0507 21.9237C20.717 22.1419 21.3104 22.3704 22.0288 22.2353C22.7836 22.0951 23.5228 21.6277 23.8247 20.9058C23.9132 20.6929 23.9549 20.454 23.908 20.2255C23.7935 19.7581 23.1584 19.4776 22.7784 19.2543Z" fill="white"/>
<path d="M19.0937 8C13.633 8 9.19261 12.43 9.19261 17.878C9.19261 19.5451 9.61947 21.1862 10.4368 22.6507L9 28L14.393 26.5614C15.8402 27.3456 17.4591 27.7611 19.0989 27.7611C24.5596 27.7611 29 23.3311 29 17.8832C28.9948 12.43 24.5544 8 19.0937 8ZM19.0937 25.8915C17.6569 25.8915 16.241 25.502 14.9917 24.7593L14.6533 24.5567L11.6393 25.3617L12.4409 22.3755L12.2327 22.0327C11.4623 20.7759 11.0562 19.3373 11.0562 17.878C11.0562 13.4583 14.6585 9.86445 19.0885 9.86445C23.5185 9.86445 27.1208 13.4583 27.1208 17.878C27.1208 22.2976 23.5237 25.8915 19.0937 25.8915Z" fill="white"/>
</svg>
