<svg width="32" height="33" viewBox="0 0 32 33" fill="none" xmlns="http://www.w3.org/2000/svg">
<path d="M28.4587 9.75562C28.2094 8.37749 27.0204 7.37522 25.6398 7.06201C23.5751 6.62351 19.7527 6.3103 15.617 6.3103C11.4845 6.3103 7.60136 6.62351 5.53355 7.06201C4.15542 7.37522 2.96397 8.31485 2.71465 9.75562C2.46221 11.3217 2.21289 13.5141 2.21289 16.333C2.21289 19.1519 2.46221 21.3444 2.77542 22.9105C3.02786 24.2886 4.21681 25.2909 5.59431 25.6041C7.78678 26.0426 11.5453 26.3558 15.6809 26.3558C19.8166 26.3558 23.5751 26.0426 25.7676 25.6041C27.1451 25.2909 28.334 24.3512 28.5865 22.9105C28.8358 21.3444 29.149 19.088 29.2129 16.333C29.0851 13.5141 28.7719 11.3217 28.4587 9.75562ZM12.2356 20.718V11.9481L19.878 16.333L12.2356 20.718Z" fill="#777E90"/>
</svg>
